# Blender v2.78 (sub 0) OBJ File: 'frame.blend'
# www.blender.org
mtllib frame.mtl
o Cube
v 0.437500 -0.500000 -0.437500
v -0.437500 -0.500000 -0.437500
v -0.437500 -0.437500 -0.437500
v 0.437500 -0.437500 -0.437500
v 0.437500 -0.500000 0.437500
v -0.437500 -0.500000 0.437500
v -0.437500 -0.437500 0.437500
v 0.437500 -0.437500 0.437500
v -0.437500 -0.500000 0.375000
v -0.437500 -0.500000 -0.375000
v 0.375000 -0.500000 0.375000
v 0.375000 -0.500000 -0.375000
v -0.375000 -0.497000 -0.375000
v -0.375000 -0.497000 0.375000
v -0.437500 -0.437500 0.375000
v 0.437500 -0.437500 0.375000
v -0.375000 -0.437500 0.375000
v -0.375000 -0.437500 -0.375000
v 0.375000 -0.437500 -0.375000
v 0.375000 -0.437500 0.375000
v 0.312500 -0.493750 0.312500
v 0.312500 -0.493750 -0.312500
v -0.312500 -0.493750 -0.312500
v -0.312500 -0.493750 0.312500
v -0.250000 -0.243125 -0.250000
v -0.250000 -0.243125 0.250000
v 0.250000 -0.243125 -0.250000
v 0.250000 -0.243125 0.250000
v 0.250000 -0.493125 -0.250000
v 0.250000 -0.493125 0.250000
v -0.250000 -0.493125 -0.250000
v -0.250000 -0.493125 0.250000
v 0.437500 -0.500000 0.375000
v 0.437500 -0.500000 -0.375000
v -0.437500 -0.437500 -0.375000
v 0.437500 -0.437500 -0.375000
v 0.375000 -0.500000 0.375000
v 0.375000 -0.497000 0.375000
v 0.375000 -0.500000 -0.375000
v 0.375000 -0.497000 -0.375000
v -0.375000 -0.500000 -0.375000
v -0.375000 -0.500000 -0.375000
v -0.375000 -0.500000 0.375000
v -0.375000 -0.500000 0.375000
vt 0.0625 0.1250
vt 0.1250 0.1250
vt 0.1250 0.8750
vt 0.0625 0.8750
vt 0.0625 0.9375
vt 0.0625 0.8750
vt 0.0625 0.1250
vt 0.0625 0.0625
vt 0.1250 0.0625
vt 0.1250 0.1250
vt 0.1250 0.8750
vt 0.1250 0.9375
vt 0.1250 0.0625
vt 0.8750 0.0625
vt 0.8750 0.1250
vt 0.9375 0.0625
vt 0.9375 0.1250
vt 0.0625 0.1250
vt 0.8750 0.0625
vt 0.8750 0.1250
vt 0.8750 0.8750
vt 0.8750 0.9375
vt 0.9375 0.9375
vt 0.9375 0.8750
vt 0.9375 0.1250
vt 0.0625 0.8750
vt 0.0625 0.9375
vt 0.9375 0.9375
vt 0.9375 0.8750
vt 0.8750 0.8750
vt 0.1250 0.8750
vt 0.1250 0.9375
vt 0.8750 0.8750
vt 0.8750 0.9375
vt 0.9375 0.0625
vt 0.0625 0.0625
vt 0.0625 0.1250
vt 0.1250 0.1250
vt 0.8750 0.1250
vt 0.9375 0.1250
vt 0.9375 0.1250
vt 0.9375 0.8750
vt 0.0625 0.8750
vt 0.9375 0.8750
vt 0.1250 0.8750
vt 0.1250 0.1250
vt 0.8750 0.1250
vt 0.8750 0.8750
vt 0.9375 0.8750
vt 0.9375 0.9375
vt 0.0625 0.9375
vt 0.0625 0.8750
vt 0.1250 0.8750
vt 0.8750 0.8750
vt 0.0625 0.0625
vt 0.9375 0.0625
vt 0.9375 0.1250
vt 0.8750 0.1250
vt 0.1250 0.1250
vt 0.0625 0.1250
vt 0.0000 1.0000
vt -0.0000 -0.0000
vt 1.0000 0.0000
vt 1.0000 1.0000
vt 0.9999 0.5000
vt 0.9999 0.0001
vt 0.0001 0.0001
vt 0.0001 0.5000
vt 0.0000 1.0000
vt -0.0000 0.5000
vt 1.0000 0.5000
vt 1.0000 1.0000
vt 1.0000 1.0000
vt 1.0000 0.0000
vt 0.0000 -0.0000
vt 0.0000 1.0000
vt 0.5000 0.0001
vt 0.0001 0.0001
vt 0.0000 1.0000
vt 0.5000 1.0000
vt 1.0000 -0.0000
vt 0.5000 -0.0000
vt 0.5000 1.0000
vt 1.0000 1.0000
vn -1.0000 0.0000 -0.0000
vn 1.0000 -0.0000 0.0000
vn -0.0000 0.0000 1.0000
vn 0.0000 -0.0000 -1.0000
vn 0.0000 1.0000 -0.0000
vn 0.0000 -1.0000 0.0000
g Cube_Cube_frame
usemtl frame
s off
f 19/1/1 39/2/1 37/3/1 20/4/1
f 5/5/2 33/6/2 34/7/2 1/8/2 4/9/2 36/10/2 16/11/2 8/12/2
f 19/13/3 18/14/3 41/15/3 39/2/3
f 1/8/4 2/16/4 3/17/4 4/18/4
f 2/16/2 3/19/2 35/20/2 15/21/2 7/22/2 6/23/2 9/24/2 10/25/2
f 9/26/5 6/27/5 5/28/5 33/29/5 11/30/5 44/31/5
f 20/32/4 37/3/4 43/33/4 17/34/4
f 1/35/5 2/36/5 10/37/5 42/38/5 12/39/5 34/40/5
f 43/33/2 41/15/2 18/41/2 17/42/2
f 5/5/3 8/43/3 7/44/3 6/23/3
f 42/38/5 10/37/5 9/26/5 44/31/5
f 38/45/5 40/46/5 13/47/5 14/48/5
f 15/49/5 7/50/5 8/51/5 16/52/5 20/53/5 17/54/5
f 33/29/5 34/40/5 12/39/5 11/30/5
f 4/55/5 3/56/5 35/57/5 18/58/5 19/59/5 36/60/5
f 15/49/5 17/54/5 18/58/5 35/57/5
f 36/60/5 19/59/5 20/53/5 16/52/5
g Cube_Cube_image
usemtl image
f 21/61/5 22/62/5 23/63/5 24/64/5
g Cube_Cube_node.top
usemtl node.top
f 30/65/3 28/66/3 26/67/3 32/68/3
g Cube_Cube_node.bottom
usemtl node.bottom
f 27/69/4 29/70/4 31/71/4 25/72/4
g Cube_Cube_node.side
usemtl node.side
f 26/73/6 25/74/6 27/75/6 28/76/6
f 31/77/2 25/78/2 26/79/2 32/80/2
f 27/81/1 29/82/1 30/83/1 28/84/1
