# Blender v2.78 (sub 0) OBJ File: ''
# www.blender.org
mtllib torch_floor.mtl
o Cube_Cube.001_Cube_Cube.001_Material.001
v 0.062500 0.062500 0.062500
v 0.062500 0.062500 -0.062500
v -0.062500 0.062500 -0.062500
v -0.062500 0.062500 0.062500
v -0.062500 -0.500000 0.062500
v 0.062500 -0.500000 0.062500
v 0.062500 -0.500000 -0.062500
v -0.062500 -0.500000 -0.062500
vt 0.5625 0.5625
vt 0.5625 0.6875
vt 0.4375 0.6875
vt 0.4375 0.5625
vt 0.4375 0.0625
vt 0.5625 0.0625
vt 0.5625 0.1875
vt 0.4375 0.1875
vt 0.5625 0.6250
vt 0.5625 0.0000
vt 0.4375 0.0000
vt 0.4375 0.6250
vt 0.5625 0.6250
vt 0.4375 0.6250
vt 0.4375 0.0000
vt 0.5625 0.0000
vt 0.5625 0.6250
vt 0.4375 0.6250
vt 0.4375 0.0000
vt 0.5625 0.0000
vt 0.5625 0.6250
vt 0.5625 0.0000
vt 0.4375 0.0000
vt 0.4375 0.6250
vn 0.0000 1.0000 0.0000
vn 0.0000 0.0000 -1.0000
vn 1.0000 0.0000 0.0000
usemtl Material.001
s 1
f 1/1/1 2/2/1 3/3/1 4/4/1
f 5/5/1 6/6/1 7/7/1 8/8/1
f 1/9/2 6/10/2 5/11/2 4/12/2
f 2/13/3 1/14/3 6/15/3 7/16/3
f 3/17/2 2/18/2 7/19/2 8/20/2
f 4/21/3 5/22/3 8/23/3 3/24/3
o Cube_Cube.001_Cube_Cube.001_Material.002
v -0.353553 -0.500000 0.353553
v -0.353553 0.500000 0.353553
v 0.353553 0.500000 -0.353553
v 0.353553 -0.500000 -0.353553
v -0.353553 -0.500000 -0.353553
v 0.353553 -0.500000 0.353553
v 0.353553 0.500000 0.353553
v -0.353553 0.500000 -0.353553
vt 1.0000 0.0000
vt 1.0000 1.0000
vt 0.0000 1.0000
vt 0.0000 0.0000
vt 0.0000 0.0000
vt 1.0000 0.0000
vt 1.0000 1.0000
vt 0.0000 1.0000
vn -0.7071 0.0000 -0.7071
vn -0.7071 -0.0000 0.7071
usemtl Material.002
s 1
f 9/25/4 10/26/4 11/27/4 12/28/4
f 13/29/5 14/30/5 15/31/5 16/32/5
