# Blender v2.78 (sub 0) OBJ File: ''
# www.blender.org
mtllib torch_wall.mtl
o Cube_Cube.001_Cube_Cube.001_Material.002
v -0.353584 -0.613553 0.022500
v -0.353584 -0.613553 0.460000
v 0.353522 0.093553 0.460000
v 0.353522 0.093553 0.022500
v -0.353584 0.093553 0.022500
v 0.353522 -0.613553 0.022500
v 0.353522 -0.613553 0.460000
v -0.353584 0.093553 0.460000
vt 1.0000 0.5625
vt 1.0000 1.0000
vt 0.0000 1.0000
vt 0.0000 0.5625
vt 0.0000 0.5625
vt 1.0000 0.5625
vt 1.0000 1.0000
vt 0.0000 1.0000
vn -0.7071 0.7071 0.0000
vn -0.7071 -0.7071 -0.0000
usemtl Material.002
s 1
f 1/1/1 2/2/1 3/3/1 4/4/1
f 5/5/2 6/6/2 7/7/2 8/8/2
o Cube_Cube.001_Cube_Cube.001_Material.001
v 0.062469 -0.303502 0.086070
v 0.062469 -0.195248 0.023570
v -0.062531 -0.195248 0.023570
v -0.062531 -0.303502 0.086070
v -0.062531 -0.584752 -0.401070
v 0.062469 -0.584752 -0.401070
v 0.062469 -0.476498 -0.463570
v -0.062531 -0.476498 -0.463570
v 0.353553 0.056811 -0.121957
v 0.353553 -0.224439 -0.609096
v -0.353553 -0.836811 -0.255543
v -0.353553 -0.555561 0.231596
v -0.353553 0.056811 -0.121957
v -0.353553 -0.224439 -0.609096
v 0.353553 -0.836811 -0.255543
v 0.353553 -0.555561 0.231596
vt 0.5625 0.5625
vt 0.5625 0.6875
vt 0.4375 0.6875
vt 0.4375 0.5625
vt 0.4375 0.0625
vt 0.5625 0.0625
vt 0.5625 0.1875
vt 0.4375 0.1875
vt 0.5625 0.6250
vt 0.5625 0.0000
vt 0.4375 0.0000
vt 0.4375 0.6250
vt 0.5625 0.6250
vt 0.4375 0.6250
vt 0.4375 0.0000
vt 0.5625 0.0000
vt 0.5625 0.6250
vt 0.4375 0.6250
vt 0.4375 0.0000
vt 0.5625 0.0000
vt 0.5625 0.6250
vt 0.5625 0.0000
vt 0.4375 0.0000
vt 0.4375 0.6250
vt 0.0000 0.5625
vt 0.0000 -0.0000
vt 1.0000 0.0000
vt 1.0000 0.5625
vt 0.0000 0.5625
vt 0.0000 -0.0000
vt 1.0000 0.0000
vt 1.0000 0.5625
vn 0.0000 0.5000 0.8660
vn 0.0000 0.8660 -0.5000
vn 1.0000 -0.0000 0.0000
vn -0.7071 0.6124 -0.3536
vn -0.7071 -0.6124 0.3536
usemtl Material.001
s 1
f 9/9/3 10/10/3 11/11/3 12/12/3
f 13/13/3 14/14/3 15/15/3 16/16/3
f 9/17/4 14/18/4 13/19/4 12/20/4
f 10/21/5 9/22/5 14/23/5 15/24/5
f 11/25/4 10/26/4 15/27/4 16/28/4
f 12/29/5 13/30/5 16/31/5 11/32/5
f 17/33/6 18/34/6 19/35/6 20/36/6
f 21/37/7 22/38/7 23/39/7 24/40/7
