# Blender v2.78 (sub 0) OBJ File: ''
# www.blender.org
mtllib backpack.mtl
o Cube_Cube.001
v -0.505102 -1.011994 0.409656
v -0.505102 0.338868 0.409656
v -0.505102 0.338868 -0.399987
v -0.505102 -1.011994 -0.399988
v 0.505102 0.338868 -0.399987
v 0.505102 -1.011994 -0.399988
v 0.505102 0.338868 0.409656
v 0.505102 -1.011994 0.409656
v 0.502913 -0.888560 -0.264627
v 0.502913 -0.275069 -0.264626
v 0.627585 -0.275069 -0.264626
v 0.627585 -0.888560 -0.264627
v 0.627585 -0.275069 0.274295
v 0.627585 -0.888560 0.274295
v 0.502913 -0.275069 0.274295
v 0.502913 -0.888560 0.274295
v -0.503672 -0.888560 -0.264627
v -0.503672 -0.275069 -0.264626
v -0.625940 -0.275069 -0.264626
v -0.625940 -0.888560 -0.264627
v -0.625940 -0.275069 0.274295
v -0.625940 -0.888560 0.274295
v -0.503672 -0.275069 0.274295
v -0.503672 -0.888560 0.274295
v -0.378960 -0.887154 -0.391150
v -0.378960 -0.394900 -0.391149
v -0.378960 -0.394899 -0.539696
v -0.378960 -0.887154 -0.539696
v 0.378960 -0.394899 -0.539696
v 0.378960 -0.887154 -0.539696
v 0.378960 -0.394900 -0.391149
v 0.378960 -0.887154 -0.391150
v 0.252120 -1.010147 0.540742
v 0.252120 0.338929 0.540742
v 0.252120 0.338929 0.409475
v 0.252120 -1.010147 0.409474
v 0.378613 0.338929 0.409475
v 0.378613 -1.010147 0.409474
v 0.378613 0.338929 0.540742
v 0.378613 -1.010147 0.540742
v -0.253079 -1.010147 0.540742
v -0.253079 0.338929 0.540742
v -0.253079 0.338929 0.409475
v -0.253079 -1.010147 0.409474
v -0.379571 0.338929 0.409475
v -0.379571 -1.010147 0.409474
v -0.379571 0.338929 0.540742
v -0.379571 -1.010147 0.540742
vt 0.6250 0.4688
vt 0.6250 0.8125
vt 0.4375 0.8125
vt 0.4375 0.4688
vt 0.1875 0.8125
vt 0.1875 0.4688
vt 0.0000 0.8125
vt -0.0000 0.4688
vt 0.8750 0.4688
vt 0.8750 0.8125
vt 0.4375 0.8125
vt 0.6875 0.8125
vt 0.6875 1.0000
vt 0.4375 1.0000
vt 0.4375 1.0000
vt 0.1875 1.0000
vt 0.1875 0.2812
vt 0.1875 0.4375
vt 0.1562 0.4375
vt 0.1562 0.2812
vt 0.0312 0.4375
vt 0.0312 0.2812
vt -0.0000 0.4375
vt -0.0000 0.2812
vt 0.3125 0.2812
vt 0.3125 0.4375
vt 0.1562 0.4375
vt 0.2812 0.4375
vt 0.2812 0.4688
vt 0.1562 0.4688
vt 0.1562 0.4688
vt 0.0312 0.4688
vt 0.5000 0.2812
vt 0.4688 0.2812
vt 0.4688 0.4375
vt 0.5000 0.4375
vt 0.3438 0.2812
vt 0.3438 0.4375
vt 0.3125 0.2812
vt 0.3125 0.4375
vt 0.6250 0.2812
vt 0.6250 0.4375
vt 0.4688 0.4375
vt 0.4688 0.4688
vt 0.5938 0.4688
vt 0.5938 0.4375
vt 0.3438 0.4688
vt 0.4688 0.4688
vt 0.2500 0.1250
vt 0.2500 0.2500
vt 0.2188 0.2500
vt 0.2188 0.1250
vt 0.0312 0.2500
vt 0.0312 0.1250
vt -0.0000 0.2500
vt -0.0000 0.1250
vt 0.4375 0.1250
vt 0.4375 0.2500
vt 0.2188 0.2500
vt 0.4062 0.2500
vt 0.4062 0.2812
vt 0.2188 0.2812
vt 0.2188 0.2812
vt 0.0312 0.2812
vt 0.7188 0.0938
vt 0.7188 0.4375
vt 0.6875 0.4375
vt 0.6875 0.0938
vt 0.6562 0.4375
vt 0.6562 0.0938
vt 0.6250 0.4375
vt 0.6250 0.0938
vt 0.7500 0.0938
vt 0.7500 0.4375
vt 0.6875 0.4375
vt 0.7188 0.4375
vt 0.7188 0.4688
vt 0.6875 0.4688
vt 0.6875 0.4688
vt 0.6562 0.4688
vt 0.7188 0.0938
vt 0.6875 0.0938
vt 0.6875 0.4375
vt 0.7188 0.4375
vt 0.6562 0.0938
vt 0.6562 0.4375
vt 0.6250 0.0938
vt 0.6250 0.4375
vt 0.7500 0.0938
vt 0.7500 0.4375
vt 0.6875 0.4375
vt 0.6875 0.4688
vt 0.7188 0.4688
vt 0.7188 0.4375
vt 0.6562 0.4688
vt 0.6875 0.4688
vn -1.0000 -0.0000 0.0000
vn 0.0000 0.0000 -1.0000
vn 1.0000 -0.0000 0.0000
vn 0.0000 -0.0000 1.0000
vn 0.0000 -1.0000 -0.0000
vn 0.0000 1.0000 0.0000
usemtl None
s 1
f 1/1/1 2/2/1 3/3/1 4/4/1
f 4/4/2 3/3/2 5/5/2 6/6/2
f 6/6/3 5/5/3 7/7/3 8/8/3
f 8/9/4 7/10/4 2/2/4 1/1/4
f 4/11/5 6/12/5 8/13/5 1/14/5
f 5/5/6 3/3/6 2/15/6 7/16/6
f 9/17/2 10/18/2 11/19/2 12/20/2
f 12/20/3 11/19/3 13/21/3 14/22/3
f 14/22/4 13/21/4 15/23/4 16/24/4
f 16/25/1 15/26/1 10/18/1 9/17/1
f 12/27/5 14/28/5 16/29/5 9/30/5
f 13/21/6 11/19/6 10/31/6 15/32/6
f 17/33/2 20/34/2 19/35/2 18/36/2
f 20/34/1 22/37/1 21/38/1 19/35/1
f 22/37/4 24/39/4 23/40/4 21/38/4
f 24/41/3 17/33/3 18/36/3 23/42/3
f 20/43/5 17/44/5 24/45/5 22/46/5
f 21/38/6 23/47/6 18/48/6 19/35/6
f 25/49/1 26/50/1 27/51/1 28/52/1
f 28/52/2 27/51/2 29/53/2 30/54/2
f 30/54/3 29/53/3 31/55/3 32/56/3
f 32/57/4 31/58/4 26/50/4 25/49/4
f 28/59/5 30/60/5 32/61/5 25/62/5
f 29/53/6 27/51/6 26/63/6 31/64/6
f 33/65/1 34/66/1 35/67/1 36/68/1
f 36/68/2 35/67/2 37/69/2 38/70/2
f 38/70/3 37/69/3 39/71/3 40/72/3
f 40/73/4 39/74/4 34/66/4 33/65/4
f 36/75/5 38/76/5 40/77/5 33/78/5
f 37/69/6 35/67/6 34/79/6 39/80/6
f 41/81/3 44/82/3 43/83/3 42/84/3
f 44/82/2 46/85/2 45/86/2 43/83/2
f 46/85/1 48/87/1 47/88/1 45/86/1
f 48/89/4 41/81/4 42/84/4 47/90/4
f 44/91/5 41/92/5 48/93/5 46/94/5
f 45/86/6 47/95/6 42/96/6 43/83/6
