# Blender v2.78 (sub 0) OBJ File: ''
# www.blender.org
mtllib tombstone.mtl
o Cube_Cube.001
v -0.853184 -1.046431 0.507511
v -0.853184 0.945959 0.681823
v -0.853184 0.991776 0.158128
v -0.853184 -1.000613 -0.016184
v 0.853184 0.991776 0.158128
v 0.853184 -1.000613 -0.016184
v 0.853184 0.945959 0.681823
v 0.853184 -1.046431 0.507511
vt 0.4583 0.3750
vt 0.4583 0.8750
vt 0.3750 0.8750
vt 0.3750 0.3750
vt 0.0833 0.8750
vt 0.0833 0.3750
vt -0.0000 0.8750
vt 0.0000 0.3750
vt 0.7500 0.3750
vt 0.7500 0.8750
vt 0.3750 0.8750
vt 0.6667 0.8750
vt 0.6667 1.0000
vt 0.3750 1.0000
vt 0.3750 1.0000
vt 0.0833 1.0000
vn -1.0000 -0.0000 0.0000
vn 0.0000 0.0872 -0.9962
vn 1.0000 -0.0000 0.0000
vn 0.0000 -0.0872 0.9962
vn 0.0000 -0.9962 -0.0872
vn 0.0000 0.9962 0.0872
usemtl None
s 1
f 1/1/1 2/2/1 3/3/1 4/4/1
f 4/4/2 3/3/2 5/5/2 6/6/2
f 6/6/3 5/5/3 7/7/3 8/8/3
f 8/9/4 7/10/4 2/2/4 1/1/4
f 4/11/5 6/12/5 8/13/5 1/14/5
f 5/5/6 3/3/6 2/15/6 7/16/6
