# Blender v2.78 (sub 0) OBJ File: ''
# www.blender.org
mtllib anvil.mtl
o Cube.001
v -0.652780 -0.029375 0.996906
v -0.652780 0.999844 0.996906
v -0.652780 -0.029375 -0.996906
v -0.652780 0.999844 -0.996906
v 0.652780 -0.029375 0.996906
v 0.652780 0.999844 0.996906
v 0.652780 -0.029375 -0.996906
v 0.652780 0.999844 -0.996906
v -0.266138 -0.412270 0.499128
v -0.266138 -0.023469 0.499128
v -0.266138 -0.412270 -0.499128
v -0.266138 -0.023469 -0.499128
v 0.266138 -0.412270 0.499128
v 0.266138 -0.023469 0.499128
v 0.266138 -0.412270 -0.499128
v 0.266138 -0.023469 -0.499128
v -0.465780 -0.428540 0.760297
v -0.465780 -0.285761 0.760297
v -0.465780 -0.428540 -0.760297
v -0.465780 -0.285761 -0.760297
v 0.465780 -0.428540 0.760297
v 0.465780 -0.285761 0.760297
v 0.465780 -0.428540 -0.760297
v 0.465780 -0.285761 -0.760297
v -0.600540 -1.000999 0.912173
v -0.600540 -0.413532 0.912173
v -0.600540 -1.000999 -0.912173
v -0.600540 -0.413532 -0.912173
v 0.600540 -1.000999 0.912173
v 0.600540 -0.413532 0.912173
v 0.600540 -1.000999 -0.912173
v 0.600540 -0.413532 -0.912173
vt 0.6562 0.6250
vt 0.6562 0.7500
vt 0.4062 0.7500
vt 0.4062 0.6250
vt 0.2500 0.7500
vt 0.2500 0.6250
vt 0.0000 0.7500
vt 0.0000 0.6250
vt 0.8125 0.6250
vt 0.8125 0.7500
vt 0.5625 0.7500
vt 0.4062 0.7500
vt 0.4062 1.0000
vt 0.5625 1.0000
vt 0.4062 1.0000
vt 0.2500 1.0000
vt 0.3125 0.4531
vt 0.3125 0.5000
vt 0.1875 0.5000
vt 0.1875 0.4531
vt 0.1250 0.5000
vt 0.1250 0.4531
vt 0.0000 0.5000
vt 0.0000 0.4531
vt 0.3750 0.4531
vt 0.3750 0.5000
vt 0.2500 0.5000
vt 0.1875 0.5000
vt 0.1875 0.6250
vt 0.2500 0.6250
vt 0.1875 0.6250
vt 0.1250 0.6250
vt 0.4219 0.2812
vt 0.4219 0.2969
vt 0.2656 0.2969
vt 0.2656 0.2812
vt 0.1562 0.2969
vt 0.1562 0.2812
vt 0.0000 0.2969
vt 0.0000 0.2812
vt 0.5312 0.2812
vt 0.5312 0.2969
vt 0.3750 0.2969
vt 0.2656 0.2969
vt 0.2656 0.4531
vt 0.3750 0.4531
vt 0.2656 0.4531
vt 0.1562 0.4531
vt 0.5156 0.0312
vt 0.5156 0.0938
vt 0.3281 0.0938
vt 0.3281 0.0312
vt 0.1875 0.0938
vt 0.1875 0.0312
vt 0.0000 0.0938
vt 0.0000 0.0312
vt 0.6562 0.0312
vt 0.6562 0.0938
vt 0.4688 0.0938
vt 0.3281 0.0938
vt 0.3281 0.2812
vt 0.4688 0.2812
vt 0.3281 0.2812
vt 0.1875 0.2812
vn -1.0000 0.0000 0.0000
vn 0.0000 0.0000 -1.0000
vn 1.0000 0.0000 0.0000
vn 0.0000 0.0000 1.0000
vn 0.0000 -1.0000 0.0000
vn 0.0000 1.0000 0.0000
usemtl None
s off
f 1/1/1 2/2/1 4/3/1 3/4/1
f 3/4/2 4/3/2 8/5/2 7/6/2
f 7/6/3 8/5/3 6/7/3 5/8/3
f 5/9/4 6/10/4 2/2/4 1/1/4
f 3/11/5 7/12/5 5/13/5 1/14/5
f 8/5/6 4/3/6 2/15/6 6/16/6
f 9/17/1 10/18/1 12/19/1 11/20/1
f 11/20/2 12/19/2 16/21/2 15/22/2
f 15/22/3 16/21/3 14/23/3 13/24/3
f 13/25/4 14/26/4 10/18/4 9/17/4
f 11/27/5 15/28/5 13/29/5 9/30/5
f 16/21/6 12/19/6 10/31/6 14/32/6
f 17/33/1 18/34/1 20/35/1 19/36/1
f 19/36/2 20/35/2 24/37/2 23/38/2
f 23/38/3 24/37/3 22/39/3 21/40/3
f 21/41/4 22/42/4 18/34/4 17/33/4
f 19/43/5 23/44/5 21/45/5 17/46/5
f 24/37/6 20/35/6 18/47/6 22/48/6
f 25/49/1 26/50/1 28/51/1 27/52/1
f 27/52/2 28/51/2 32/53/2 31/54/2
f 31/54/3 32/53/3 30/55/3 29/56/3
f 29/57/4 30/58/4 26/50/4 25/49/4
f 27/59/5 31/60/5 29/61/5 25/62/5
f 32/53/6 28/51/6 26/63/6 30/64/6
