# Blender v2.78 (sub 0) OBJ File: 'bear.blend'
# www.blender.org
mtllib bear_rug.mtl
o Cube_Cube.001
v -0.634189 -1.058360 -0.323156
v -0.634189 -0.655980 -0.323156
v -0.634189 -1.058360 -1.509433
v -0.634189 -0.655980 -1.509433
v 0.634189 -1.058360 -0.323156
v 0.634189 -0.655980 -0.323156
v 0.634189 -1.058360 -1.509433
v 0.634189 -0.655980 -1.509433
v -0.528446 -1.265132 -1.460622
v -0.528446 -0.217367 -1.079267
v -0.528446 -0.991330 -2.212885
v -0.528446 0.056435 -1.831530
v 0.528446 -1.265132 -1.460622
v 0.528446 -0.217367 -1.079267
v 0.528446 -0.991330 -2.212885
v 0.528446 0.056435 -1.831530
v 0.217162 -0.628754 -2.503339
v 0.217162 -0.844894 -2.529424
v 0.217162 -0.679252 -2.084910
v 0.217162 -0.895391 -2.110995
v -0.217162 -0.628754 -2.503339
v -0.217162 -0.844894 -2.529424
v -0.217162 -0.679252 -2.084910
v -0.217162 -0.895391 -2.110995
v -0.532145 -1.052126 0.591926
v -0.532145 -0.679380 0.591926
v -0.532145 -1.052126 -0.406652
v -0.532145 -0.679380 -0.406652
v 0.532145 -1.052126 0.591926
v 0.532145 -0.679380 0.591926
v 0.532145 -1.052126 -0.406652
v 0.532145 -0.679380 -0.406652
v -0.595610 -1.059017 1.564771
v -0.595610 -0.731584 1.564771
v -0.595610 -1.059017 0.558911
v -0.595610 -0.731584 0.558911
v 0.595610 -1.059017 1.564771
v 0.595610 -0.731584 1.564771
v 0.595610 -1.059017 0.558911
v 0.595610 -0.731584 0.558911
v 0.892308 -1.211955 2.260662
v 0.045229 -1.211955 1.549878
v 1.416945 -1.211955 1.635424
v 0.569866 -1.211955 0.924640
v 0.892308 -0.756615 2.260662
v 0.045229 -0.756615 1.549878
v 1.416945 -0.756615 1.635424
v 0.569866 -0.756615 0.924640
v 1.521364 -1.238449 -1.327576
v 0.627717 -1.238449 -0.577717
v 0.972107 -1.238449 -1.982154
v 0.078460 -1.238449 -1.232296
v 1.521364 -0.710208 -1.327576
v 0.627717 -0.710208 -0.577717
v 0.972107 -0.710208 -1.982154
v 0.078460 -0.710208 -1.232296
v 1.275435 -1.131021 2.472406
v 0.889065 -1.131021 2.148204
v 1.584751 -1.131021 2.103778
v 1.198381 -1.131021 1.779575
v 1.275435 -0.780754 2.472406
v 0.889065 -0.780754 2.148204
v 1.584751 -0.780754 2.103778
v 1.198381 -0.780754 1.779575
v 1.974438 -1.189801 -1.736245
v 1.376713 -1.189801 -1.234693
v 1.559183 -1.189801 -2.231126
v 0.961458 -1.189801 -1.729575
v 1.974438 -0.732729 -1.736245
v 1.376713 -0.732729 -1.234693
v 1.559183 -0.732729 -2.231126
v 0.961458 -0.732729 -1.729575
v 1.489439 -1.222596 -2.097852
v 1.432240 -0.890081 -2.054910
v 2.042735 -1.057786 -2.637034
v 1.985535 -0.725271 -2.594092
v 1.884265 -1.207594 -1.688105
v 1.827066 -0.875079 -1.645163
v 2.437561 -1.042784 -2.227287
v 2.380362 -0.710269 -2.184345
v 1.392589 -1.119063 1.949231
v 1.388283 -0.794217 1.950187
v 1.990554 -1.112492 2.409365
v 1.986248 -0.787646 2.410321
v 1.118402 -1.123745 2.305617
v 1.114096 -0.798900 2.306572
v 1.716367 -1.117174 2.765750
v 1.712062 -0.792329 2.766706
v -0.904924 -1.210648 2.262342
v -0.057845 -1.210648 1.551558
v -1.429561 -1.210648 1.637104
v -0.582482 -1.210648 0.926320
v -0.904924 -0.755309 2.262342
v -0.057845 -0.755308 1.551558
v -1.429561 -0.755309 1.637104
v -0.582482 -0.755308 0.926320
v -1.577250 -1.237143 -1.312224
v -0.621650 -1.237143 -0.643105
v -1.087134 -1.237143 -2.012182
v -0.131533 -1.237143 -1.343063
v -1.577250 -0.708901 -1.312224
v -0.621650 -0.708901 -0.643105
v -1.087134 -0.708901 -2.012182
v -0.131533 -0.708901 -1.343063
v -1.288051 -1.129715 2.474087
v -0.901681 -1.129715 2.149884
v -1.597367 -1.129715 2.105458
v -1.210997 -1.129715 1.781255
v -1.288051 -0.779448 2.474087
v -0.901681 -0.779448 2.149884
v -1.597367 -0.779448 2.105458
v -1.210997 -0.779448 1.781255
v -2.064218 -1.188494 -1.679849
v -1.425054 -1.188494 -1.232302
v -1.693676 -1.188494 -2.209039
v -1.054512 -1.188494 -1.761492
v -2.064218 -0.731423 -1.679849
v -1.425054 -0.731423 -1.232302
v -1.693676 -0.731423 -2.209039
v -1.054512 -0.731423 -1.761492
v -1.666339 -1.222632 -2.124308
v -1.603428 -0.892948 -2.069238
v -2.273033 -1.028804 -2.591607
v -2.210122 -0.699120 -2.536538
v -2.015344 -1.231131 -1.674721
v -1.952432 -0.901447 -1.619651
v -2.622038 -1.037303 -2.142020
v -2.559127 -0.707619 -2.086951
v -1.395285 -1.106394 1.943045
v -1.395995 -0.781617 1.951035
v -1.994866 -1.118968 2.400946
v -1.995576 -0.794192 2.408936
v -1.122291 -1.114586 2.300281
v -1.123001 -0.789810 2.308271
v -1.721872 -1.127160 2.758183
v -1.722581 -0.802384 2.766173
v -0.162600 -0.991307 1.564724
v -0.162600 -0.716306 1.738301
v -0.162600 -0.817730 1.289723
v -0.162600 -0.542729 1.463300
v 0.162600 -0.991307 1.564724
v 0.162600 -0.716306 1.738301
v 0.162600 -0.817730 1.289723
v 0.162600 -0.542729 1.463300
v -0.526031 -0.237758 -1.393302
v -0.638760 0.053285 -1.287371
v -0.526031 -0.161044 -1.604073
v -0.638760 0.129999 -1.498142
v -0.216250 -0.131807 -1.354738
v -0.328980 0.159236 -1.248807
v -0.216250 -0.055092 -1.565510
v -0.328980 0.235951 -1.459579
v 0.532081 -0.237758 -1.393302
v 0.644810 0.053285 -1.287371
v 0.532081 -0.161044 -1.604073
v 0.644810 0.129999 -1.498142
v 0.222300 -0.131807 -1.354738
v 0.335029 0.159236 -1.248807
v 0.222300 -0.055092 -1.565510
v 0.335029 0.235951 -1.459579
v 0.217162 -0.284547 -2.389378
v 0.217162 -0.489125 -2.463839
v 0.217162 -0.428696 -1.993331
v 0.217162 -0.633275 -2.067791
v -0.217162 -0.284547 -2.389378
v -0.217162 -0.489125 -2.463839
v -0.217162 -0.428696 -1.993331
v -0.217162 -0.633275 -2.067791
vt 0.2656 0.7656
vt 0.2656 0.8281
vt 0.1797 0.8281
vt 0.1797 0.7656
vt 0.0859 0.8281
vt 0.0859 0.7656
vt 0.0000 0.8281
vt -0.0000 0.7656
vt 0.3594 0.7656
vt 0.3594 0.8281
vt 0.1797 0.8281
vt 0.2734 0.8281
vt 0.2734 1.0000
vt 0.1797 1.0000
vt 0.1797 1.0000
vt 0.0859 1.0000
vt 0.1875 -0.0000
vt 0.1875 0.1562
vt 0.1328 0.1562
vt 0.1328 0.0000
vt 0.0547 0.1562
vt 0.0547 0.0000
vt 0.0000 0.1562
vt 0.0000 0.0000
vt 0.2656 -0.0000
vt 0.2656 0.1562
vt 0.1328 0.1562
vt 0.2109 0.1562
vt 0.2109 0.2656
vt 0.1328 0.2656
vt 0.1328 0.2656
vt 0.0547 0.2656
vt 0.2969 0.0312
vt 0.3281 0.0312
vt 0.3281 0.0938
vt 0.2969 0.0938
vt 0.3281 0.0312
vt 0.3594 0.0312
vt 0.3594 0.0938
vt 0.3281 0.0938
vt 0.3906 0.0000
vt 0.3906 0.0312
vt 0.3594 0.0312
vt 0.3594 0.0000
vt 0.2969 0.0000
vt 0.2656 0.0312
vt 0.2656 0.0000
vt 0.3281 0.0000
vt 0.2188 0.4219
vt 0.2188 0.4688
vt 0.1484 0.4688
vt 0.1484 0.4219
vt 0.0703 0.4688
vt 0.0703 0.4219
vt -0.0000 0.4688
vt -0.0000 0.4219
vt 0.2969 0.4219
vt 0.2969 0.4688
vt 0.1484 0.4688
vt 0.2266 0.4688
vt 0.2266 0.6094
vt 0.1484 0.6094
vt 0.1484 0.6094
vt 0.0703 0.6094
vt 0.6016 0.8125
vt 0.6016 0.8438
vt 0.5234 0.8438
vt 0.5234 0.8125
vt 0.4375 0.8438
vt 0.4375 0.8125
vt 0.3594 0.8438
vt 0.3594 0.8125
vt 0.6875 0.8125
vt 0.6875 0.8438
vt 0.5234 0.8438
vt 0.6094 0.8438
vt 0.6094 1.0000
vt 0.5234 1.0000
vt 0.5234 1.0000
vt 0.4375 1.0000
vt 0.4531 0.3750
vt 0.4531 0.5312
vt 0.3906 0.5312
vt 0.3906 0.3750
vt 0.3594 0.5312
vt 0.3594 0.3750
vt 0.2969 0.5312
vt 0.2969 0.3750
vt 0.4844 0.3750
vt 0.4844 0.5312
vt 0.3906 0.5312
vt 0.4219 0.5312
vt 0.4219 0.6562
vt 0.3906 0.6562
vt 0.3906 0.6562
vt 0.3594 0.6562
vt 0.7578 0.3594
vt 0.7578 0.5312
vt 0.6953 0.5312
vt 0.6953 0.3594
vt 0.6562 0.5312
vt 0.6562 0.3594
vt 0.5938 0.5312
vt 0.5938 0.3594
vt 0.7969 0.3594
vt 0.7969 0.5312
vt 0.6953 0.5312
vt 0.7344 0.5312
vt 0.7344 0.6562
vt 0.6953 0.6562
vt 0.6953 0.6562
vt 0.6562 0.6562
vt 0.9609 0.8438
vt 0.9609 0.9219
vt 0.9219 0.9219
vt 0.9219 0.8438
vt 0.8984 0.9219
vt 0.8984 0.8438
vt 0.8594 0.9219
vt 0.8594 0.8438
vt 0.9844 0.8438
vt 0.9844 0.9219
vt 0.9219 0.9219
vt 0.9453 0.9219
vt 0.9453 1.0000
vt 0.9219 1.0000
vt 0.9219 1.0000
vt 0.8984 1.0000
vt 0.7188 0.1562
vt 0.7188 0.2656
vt 0.6719 0.2656
vt 0.6719 0.1562
vt 0.6406 0.2656
vt 0.6406 0.1562
vt 0.5938 0.2656
vt 0.5938 0.1562
vt 0.7500 0.1562
vt 0.7500 0.2656
vt 0.6719 0.2656
vt 0.7031 0.2656
vt 0.7031 0.3594
vt 0.6719 0.3594
vt 0.6719 0.3594
vt 0.6406 0.3594
vt 0.7578 -0.0000
vt 0.7578 0.0469
vt 0.7031 0.0469
vt 0.7031 0.0000
vt 0.6641 0.0469
vt 0.6641 -0.0000
vt 0.6094 0.0469
vt 0.6094 0.0000
vt 0.7969 0.0000
vt 0.7969 0.0469
vt 0.7031 0.0469
vt 0.7422 0.0469
vt 0.7422 0.1562
vt 0.7031 0.1562
vt 0.7031 0.1562
vt 0.6641 0.1562
vt 0.8281 0.8438
vt 0.8281 0.8906
vt 0.7734 0.8906
vt 0.7734 0.8438
vt 0.7422 0.8906
vt 0.7422 0.8438
vt 0.6875 0.8906
vt 0.6875 0.8438
vt 0.8594 0.8438
vt 0.8594 0.8906
vt 0.7734 0.8906
vt 0.8047 0.8906
vt 0.8047 1.0000
vt 0.7734 1.0000
vt 0.7734 1.0000
vt 0.7422 1.0000
vt 0.4531 0.0938
vt 0.3906 0.0938
vt 0.3906 0.2500
vt 0.4531 0.2500
vt 0.3594 0.0938
vt 0.3594 0.2500
vt 0.2969 0.0938
vt 0.2969 0.2500
vt 0.4844 0.0938
vt 0.4844 0.2500
vt 0.3906 0.2500
vt 0.3906 0.3750
vt 0.4219 0.3750
vt 0.4219 0.2500
vt 0.3594 0.3750
vt 0.3906 0.3750
vt 0.9609 0.3594
vt 0.8984 0.3594
vt 0.8984 0.5312
vt 0.9609 0.5312
vt 0.8594 0.3594
vt 0.8594 0.5312
vt 0.7969 0.3594
vt 0.7969 0.5312
vt 1.0000 0.3594
vt 1.0000 0.5312
vt 0.8984 0.5312
vt 0.8984 0.6562
vt 0.9375 0.6562
vt 0.9375 0.5312
vt 0.8594 0.6562
vt 0.8984 0.6562
vt 0.9609 0.6875
vt 0.9219 0.6875
vt 0.9219 0.7656
vt 0.9609 0.7656
vt 0.8984 0.6875
vt 0.8984 0.7656
vt 0.8594 0.6875
vt 0.8594 0.7656
vt 0.9844 0.6875
vt 0.9844 0.7656
vt 0.9219 0.7656
vt 0.9219 0.8438
vt 0.9453 0.8438
vt 0.9453 0.7656
vt 0.8984 0.8438
vt 0.9219 0.8438
vt 0.9219 0.1562
vt 0.8750 0.1562
vt 0.8750 0.2656
vt 0.9219 0.2656
vt 0.8438 0.1562
vt 0.8438 0.2656
vt 0.7969 0.1562
vt 0.7969 0.2656
vt 0.9531 0.1562
vt 0.9531 0.2656
vt 0.8750 0.2656
vt 0.8750 0.3594
vt 0.9062 0.3594
vt 0.9062 0.2656
vt 0.8438 0.3594
vt 0.8750 0.3594
vt 0.9453 -0.0000
vt 0.8906 -0.0000
vt 0.8906 0.0469
vt 0.9453 0.0469
vt 0.8516 -0.0000
vt 0.8516 0.0469
vt 0.7969 -0.0000
vt 0.7969 0.0469
vt 0.9844 -0.0000
vt 0.9844 0.0469
vt 0.8906 0.0469
vt 0.8906 0.1562
vt 0.9297 0.1562
vt 0.9297 0.0469
vt 0.8516 0.1562
vt 0.8906 0.1562
vt 0.8281 0.6875
vt 0.7734 0.6875
vt 0.7734 0.7344
vt 0.8281 0.7344
vt 0.7422 0.6875
vt 0.7422 0.7344
vt 0.6875 0.6875
vt 0.6875 0.7344
vt 0.8594 0.6875
vt 0.8594 0.7344
vt 0.7734 0.7344
vt 0.7734 0.8438
vt 0.8047 0.8438
vt 0.8047 0.7344
vt 0.7422 0.8438
vt 0.7734 0.8438
vt 0.3438 0.9062
vt 0.3438 0.9531
vt 0.3203 0.9531
vt 0.3203 0.9062
vt 0.2969 0.9531
vt 0.2969 0.9062
vt 0.2734 0.9531
vt 0.2734 0.9062
vt 0.3672 0.9062
vt 0.3672 0.9531
vt 0.3203 0.9531
vt 0.3438 0.9531
vt 0.3438 1.0000
vt 0.3203 1.0000
vt 0.3203 1.0000
vt 0.2969 1.0000
vt 0.5547 0.5781
vt 0.5547 0.6250
vt 0.5391 0.6250
vt 0.5391 0.5781
vt 0.5156 0.6250
vt 0.5156 0.5781
vt 0.5000 0.6250
vt 0.5000 0.5781
vt 0.5781 0.5781
vt 0.5781 0.6250
vt 0.5391 0.6250
vt 0.5625 0.6250
vt 0.5625 0.6562
vt 0.5391 0.6562
vt 0.5391 0.6562
vt 0.5156 0.6562
vt 0.4766 0.5781
vt 0.4609 0.5781
vt 0.4609 0.6250
vt 0.4766 0.6250
vt 0.4375 0.5781
vt 0.4375 0.6250
vt 0.4219 0.5781
vt 0.4219 0.6250
vt 0.5000 0.5781
vt 0.5000 0.6250
vt 0.4609 0.6250
vt 0.4609 0.6562
vt 0.4844 0.6562
vt 0.4844 0.6250
vt 0.4375 0.6562
vt 0.4609 0.6562
vt 0.4219 0.0312
vt 0.4531 0.0312
vt 0.4531 0.0938
vt 0.4219 0.0938
vt 0.4531 0.0312
vt 0.4844 0.0312
vt 0.4844 0.0938
vt 0.4531 0.0938
vt 0.5156 0.0000
vt 0.5156 0.0312
vt 0.4844 0.0312
vt 0.4844 0.0000
vt 0.4219 0.0000
vt 0.3906 0.0312
vt 0.3906 0.0000
vt 0.4531 0.0000
vn -1.0000 0.0000 0.0000
vn 0.0000 0.0000 -1.0000
vn 1.0000 0.0000 0.0000
vn 0.0000 0.0000 1.0000
vn 0.0000 -1.0000 0.0000
vn 0.0000 1.0000 0.0000
vn 0.0000 0.3420 -0.9397
vn 0.0000 -0.3420 0.9397
vn 0.0000 -0.9397 -0.3420
vn 0.0000 0.9397 0.3420
vn 0.0000 0.9928 0.1198
vn 0.0000 -0.9928 -0.1198
vn 0.0000 -0.1198 0.9928
vn 0.0000 0.1198 -0.9928
vn 0.6428 0.0000 -0.7660
vn -0.6428 0.0000 0.7660
vn 0.7660 0.0000 0.6428
vn -0.7660 0.0000 -0.6428
vn -0.6428 0.0000 -0.7660
vn 0.6428 0.0000 0.7660
vn 0.7660 0.0000 -0.6428
vn -0.7660 0.0000 0.6428
vn -0.6936 -0.0264 -0.7198
vn 0.7004 0.2086 -0.6826
vn 0.6936 0.0264 0.7198
vn -0.7004 -0.2086 0.6826
vn 0.1682 -0.9776 -0.1263
vn -0.1682 0.9776 0.1263
vn 0.6097 0.0104 -0.7925
vn 0.7925 0.0087 0.6098
vn -0.6097 -0.0104 0.7925
vn -0.7925 -0.0087 -0.6098
vn 0.0133 -0.9999 -0.0029
vn -0.0133 0.9999 0.0029
vn 0.5736 0.0000 -0.8192
vn -0.5736 0.0000 0.8192
vn -0.8192 0.0000 -0.5736
vn 0.8192 0.0000 0.5736
vn 0.6131 0.0149 -0.7898
vn -0.7680 0.2454 -0.5916
vn -0.6131 -0.0149 0.7898
vn 0.7680 -0.2454 0.5916
vn -0.1850 -0.9693 -0.1619
vn 0.1850 0.9693 0.1619
vn -0.6071 0.0182 -0.7944
vn -0.7946 -0.0167 0.6069
vn 0.6071 -0.0182 0.7944
vn 0.7946 0.0167 -0.6069
vn 0.0022 -0.9997 -0.0246
vn -0.0022 0.9997 0.0246
vn 0.0000 0.5338 -0.8456
vn 0.0000 -0.5338 0.8456
vn 0.0000 -0.8456 -0.5338
vn 0.0000 0.8456 0.5338
vn -0.9397 -0.3214 -0.1170
vn 0.9397 0.3214 0.1170
vn 0.3420 -0.8830 -0.3214
vn -0.3420 0.8830 0.3214
vn 0.9397 -0.3214 -0.1170
vn -0.9397 0.3214 0.1170
vn -0.3420 -0.8830 -0.3214
vn 0.3420 0.8830 0.3214
usemtl None
s off
f 1/1/1 2/2/1 4/3/1 3/4/1
f 3/4/2 4/3/2 8/5/2 7/6/2
f 7/6/3 8/5/3 6/7/3 5/8/3
f 5/9/4 6/10/4 2/2/4 1/1/4
f 3/11/5 7/12/5 5/13/5 1/14/5
f 8/5/6 4/3/6 2/15/6 6/16/6
f 9/17/1 10/18/1 12/19/1 11/20/1
f 11/20/7 12/19/7 16/21/7 15/22/7
f 15/22/3 16/21/3 14/23/3 13/24/3
f 13/25/8 14/26/8 10/18/8 9/17/8
f 11/27/9 15/28/9 13/29/9 9/30/9
f 16/21/10 12/19/10 10/31/10 14/32/10
f 17/33/11 21/34/11 23/35/11 19/36/11
f 22/37/12 18/38/12 20/39/12 24/40/12
f 20/41/13 19/42/13 23/43/13 24/44/13
f 18/45/3 17/33/3 19/46/3 20/47/3
f 22/48/14 21/34/14 17/33/14 18/45/14
f 24/44/1 23/43/1 21/34/1 22/48/1
f 25/49/1 26/50/1 28/51/1 27/52/1
f 27/52/2 28/51/2 32/53/2 31/54/2
f 31/54/3 32/53/3 30/55/3 29/56/3
f 29/57/4 30/58/4 26/50/4 25/49/4
f 27/59/5 31/60/5 29/61/5 25/62/5
f 32/53/6 28/51/6 26/63/6 30/64/6
f 33/65/1 34/66/1 36/67/1 35/68/1
f 35/68/2 36/67/2 40/69/2 39/70/2
f 39/70/3 40/69/3 38/71/3 37/72/3
f 37/73/4 38/74/4 34/66/4 33/65/4
f 35/75/5 39/76/5 37/77/5 33/78/5
f 40/69/6 36/67/6 34/79/6 38/80/6
f 41/81/5 42/82/5 44/83/5 43/84/5
f 43/84/15 44/83/15 48/85/15 47/86/15
f 47/86/6 48/85/6 46/87/6 45/88/6
f 45/89/16 46/90/16 42/82/16 41/81/16
f 43/91/17 47/92/17 45/93/17 41/94/17
f 48/85/18 44/83/18 42/95/18 46/96/18
f 49/97/5 50/98/5 52/99/5 51/100/5
f 51/100/19 52/99/19 56/101/19 55/102/19
f 55/102/6 56/101/6 54/103/6 53/104/6
f 53/105/20 54/106/20 50/98/20 49/97/20
f 51/107/21 55/108/21 53/109/21 49/110/21
f 56/101/22 52/99/22 50/111/22 54/112/22
f 57/113/5 58/114/5 60/115/5 59/116/5
f 59/116/15 60/115/15 64/117/15 63/118/15
f 63/118/6 64/117/6 62/119/6 61/120/6
f 61/121/16 62/122/16 58/114/16 57/113/16
f 59/123/17 63/124/17 61/125/17 57/126/17
f 64/117/18 60/115/18 58/127/18 62/128/18
f 65/129/5 66/130/5 68/131/5 67/132/5
f 67/132/19 68/131/19 72/133/19 71/134/19
f 71/134/6 72/133/6 70/135/6 69/136/6
f 69/137/20 70/138/20 66/130/20 65/129/20
f 67/139/21 71/140/21 69/141/21 65/142/21
f 72/133/22 68/131/22 66/143/22 70/144/22
f 73/145/23 74/146/23 76/147/23 75/148/23
f 75/148/24 76/147/24 80/149/24 79/150/24
f 79/150/25 80/149/25 78/151/25 77/152/25
f 77/153/26 78/154/26 74/146/26 73/145/26
f 75/155/27 79/156/27 77/157/27 73/158/27
f 80/149/28 76/147/28 74/159/28 78/160/28
f 81/161/29 82/162/29 84/163/29 83/164/29
f 83/164/30 84/163/30 88/165/30 87/166/30
f 87/166/31 88/165/31 86/167/31 85/168/31
f 85/169/32 86/170/32 82/162/32 81/161/32
f 83/171/33 87/172/33 85/173/33 81/174/33
f 88/165/34 84/163/34 82/175/34 86/176/34
f 89/177/5 91/178/5 92/179/5 90/180/5
f 91/178/19 95/181/19 96/182/19 92/179/19
f 95/181/6 93/183/6 94/184/6 96/182/6
f 93/185/20 89/177/20 90/180/20 94/186/20
f 91/187/22 89/188/22 93/189/22 95/190/22
f 96/182/21 94/191/21 90/192/21 92/179/21
f 97/193/5 99/194/5 100/195/5 98/196/5
f 99/194/35 103/197/35 104/198/35 100/195/35
f 103/197/6 101/199/6 102/200/6 104/198/6
f 101/201/36 97/193/36 98/196/36 102/202/36
f 99/203/37 97/204/37 101/205/37 103/206/37
f 104/198/38 102/207/38 98/208/38 100/195/38
f 105/209/5 107/210/5 108/211/5 106/212/5
f 107/210/19 111/213/19 112/214/19 108/211/19
f 111/213/6 109/215/6 110/216/6 112/214/6
f 109/217/20 105/209/20 106/212/20 110/218/20
f 107/219/22 105/220/22 109/221/22 111/222/22
f 112/214/21 110/223/21 106/224/21 108/211/21
f 113/225/5 115/226/5 116/227/5 114/228/5
f 115/226/35 119/229/35 120/230/35 116/227/35
f 119/229/6 117/231/6 118/232/6 120/230/6
f 117/233/36 113/225/36 114/228/36 118/234/36
f 115/235/37 113/236/37 117/237/37 119/238/37
f 120/230/38 118/239/38 114/240/38 116/227/38
f 121/241/39 123/242/39 124/243/39 122/244/39
f 123/242/40 127/245/40 128/246/40 124/243/40
f 127/245/41 125/247/41 126/248/41 128/246/41
f 125/249/42 121/241/42 122/244/42 126/250/42
f 123/251/43 121/252/43 125/253/43 127/254/43
f 128/246/44 126/255/44 122/256/44 124/243/44
f 129/257/45 131/258/45 132/259/45 130/260/45
f 131/258/46 135/261/46 136/262/46 132/259/46
f 135/261/47 133/263/47 134/264/47 136/262/47
f 133/265/48 129/257/48 130/260/48 134/266/48
f 131/267/49 129/268/49 133/269/49 135/270/49
f 136/262/50 134/271/50 130/272/50 132/259/50
f 137/273/1 138/274/1 140/275/1 139/276/1
f 139/276/51 140/275/51 144/277/51 143/278/51
f 143/278/3 144/277/3 142/279/3 141/280/3
f 141/281/52 142/282/52 138/274/52 137/273/52
f 139/283/53 143/284/53 141/285/53 137/286/53
f 144/277/54 140/275/54 138/287/54 142/288/54
f 145/289/55 146/290/55 148/291/55 147/292/55
f 147/292/7 148/291/7 152/293/7 151/294/7
f 151/294/56 152/293/56 150/295/56 149/296/56
f 149/297/8 150/298/8 146/290/8 145/289/8
f 147/299/57 151/300/57 149/301/57 145/302/57
f 152/293/58 148/291/58 146/303/58 150/304/58
f 153/305/59 155/306/59 156/307/59 154/308/59
f 155/306/7 159/309/7 160/310/7 156/307/7
f 159/309/60 157/311/60 158/312/60 160/310/60
f 157/313/8 153/305/8 154/308/8 158/314/8
f 155/315/61 153/316/61 157/317/61 159/318/61
f 160/310/62 158/319/62 154/320/62 156/307/62
f 161/321/10 165/322/10 167/323/10 163/324/10
f 166/325/9 162/326/9 164/327/9 168/328/9
f 164/329/8 163/330/8 167/331/8 168/332/8
f 162/333/3 161/321/3 163/334/3 164/335/3
f 166/336/7 165/322/7 161/321/7 162/333/7
f 168/332/1 167/331/1 165/322/1 166/336/1
