# Blender v2.78 (sub 0) OBJ File: ''
# www.blender.org
mtllib decoblocks_old_skeleton2.mtl
o Player_Cube
v 0.461038 -1.009032 2.102306
v -0.461038 -1.009032 2.102306
v -0.461038 -1.009033 0.546303
v 0.461038 -1.009033 0.546303
v -0.461038 -0.572102 2.102306
v -0.461038 -0.572101 0.546303
v 0.461038 -0.572102 2.102306
v 0.461038 -0.572101 0.546303
v 0.461038 -1.017900 3.009239
v -0.461038 -1.017900 3.009239
v -0.461038 -1.017899 2.087164
v 0.461038 -1.017899 2.087164
v -0.461038 -0.095824 3.009240
v -0.461038 -0.095823 2.087165
v 0.461038 -0.095824 3.009240
v 0.461038 -0.095823 2.087165
v 0.453683 -1.010545 3.001885
v 0.453683 -1.010544 2.094519
v 0.453683 -0.103178 2.094519
v 0.453683 -0.103178 3.001885
v -0.453683 -0.103178 3.001885
v -0.453683 -1.010545 3.001885
v -0.453683 -1.010544 2.094519
v -0.453683 -0.103178 2.094519
v 0.576472 -0.760598 0.560913
v 0.822794 -0.760598 0.582464
v 0.822794 -1.007860 0.582464
v 0.576472 -1.007860 0.560914
v 0.687130 -0.760598 2.133106
v 0.440808 -0.760598 2.111556
v 0.440808 -1.007861 2.111556
v 0.687130 -1.007861 2.133106
v -0.573826 -0.760598 0.560913
v -0.573826 -1.007860 0.560914
v -0.820149 -1.007860 0.582464
v -0.820149 -0.760598 0.582464
v -0.684486 -0.760598 2.133106
v -0.684486 -1.007861 2.133106
v -0.438163 -1.007861 2.111556
v -0.438163 -0.760598 2.111556
v 0.454776 -0.760117 -0.976079
v 0.698283 -0.760117 -0.933142
v 0.698283 -1.007380 -0.933142
v 0.454776 -1.007380 -0.976079
v 0.427988 -0.760117 0.599776
v 0.184481 -0.760117 0.556839
v 0.184481 -1.007381 0.556839
v 0.427988 -1.007381 0.599776
v -0.455570 -0.760117 -0.976079
v -0.455570 -1.007380 -0.976079
v -0.699077 -1.007380 -0.933142
v -0.699077 -0.760117 -0.933142
v -0.428782 -0.760117 0.599776
v -0.428782 -1.007381 0.599776
v -0.185275 -1.007381 0.556839
v -0.185275 -0.760117 0.556839
vt 0.3438 0.4062
vt 0.2188 0.4062
vt 0.2188 0.0312
vt 0.3438 0.0312
vt 0.1719 0.4062
vt 0.1719 0.0312
vt 0.0469 0.4062
vt 0.0469 0.0312
vt 0.2969 0.4062
vt 0.2969 0.5000
vt 0.1719 0.5000
vt 0.1719 0.4062
vt 0.1719 0.5000
vt 0.0469 0.5000
vt 0.5000 0.7500
vt 0.3750 0.7500
vt 0.3750 0.5000
vt 0.5000 0.5000
vt 0.2500 0.7500
vt 0.2500 0.5000
vt 0.1250 0.7500
vt 0.1250 0.5000
vt 0.3750 0.7500
vt 0.3750 1.0000
vt 0.2500 1.0000
vt 0.2500 0.7500
vt 0.2500 1.0000
vt 0.1250 1.0000
vt -0.0000 0.4062
vt -0.0000 0.0312
vt 0.0000 0.7500
vt 0.0000 0.5000
vt 0.5000 0.7500
vt 0.5000 0.5000
vt 0.6250 0.5000
vt 0.6250 0.7500
vt 0.7500 0.7500
vt 0.7500 1.0000
vt 0.6250 1.0000
vt 0.8750 0.7500
vt 0.8750 1.0000
vt 0.7500 1.0000
vt 0.7500 0.7500
vt 0.7500 0.5000
vt 0.8750 0.7500
vt 0.8750 0.5000
vt 1.0000 0.7500
vt 1.0000 0.5000
vt 0.4062 0.4375
vt 0.4375 0.4375
vt 0.4375 0.5000
vt 0.4062 0.5000
vt 0.3750 0.4375
vt 0.4062 0.4375
vt 0.4062 0.5000
vt 0.3750 0.5000
vt 0.3438 0.4375
vt 0.3438 0.0625
vt 0.3750 0.0625
vt 0.4062 0.0625
vt 0.4375 0.0625
vt 0.4375 0.4375
vt 0.4688 0.0625
vt 0.4688 0.4375
vt 0.5312 0.4375
vt 0.5312 0.5000
vt 0.5625 0.5000
vt 0.5625 0.4375
vt 0.5000 0.4375
vt 0.5000 0.5000
vt 0.5312 0.5000
vt 0.5312 0.4375
vt 0.4688 0.4375
vt 0.5000 0.0625
vt 0.4688 0.0625
vt 0.5312 0.0625
vt 0.5625 0.4375
vt 0.5625 0.0625
vt 0.5938 0.4375
vt 0.5938 0.0625
vt 0.6562 0.4375
vt 0.6875 0.4375
vt 0.6875 0.5000
vt 0.6562 0.5000
vt 0.6250 0.4375
vt 0.6562 0.4375
vt 0.6562 0.5000
vt 0.6250 0.5000
vt 0.5938 0.4375
vt 0.5938 0.0625
vt 0.6250 0.0625
vt 0.6562 0.0625
vt 0.6875 0.0625
vt 0.6875 0.4375
vt 0.7188 0.0625
vt 0.7188 0.4375
vt 0.7812 0.4375
vt 0.7812 0.5000
vt 0.8125 0.5000
vt 0.8125 0.4375
vt 0.7500 0.4375
vt 0.7500 0.5000
vt 0.7812 0.5000
vt 0.7812 0.4375
vt 0.7188 0.4375
vt 0.7500 0.0625
vt 0.7188 0.0625
vt 0.7812 0.0625
vt 0.8125 0.4375
vt 0.8125 0.0625
vt 0.8438 0.4375
vt 0.8438 0.0625
vn 0.0000 -1.0000 0.0000
vn -1.0000 -0.0000 0.0000
vn 0.0000 1.0000 0.0000
vn 0.0000 0.0000 -1.0000
vn 0.0000 0.0000 1.0000
vn 1.0000 -0.0000 0.0000
vn 0.0872 -0.0000 -0.9962
vn -0.0872 0.0000 0.9962
vn 0.9962 0.0000 0.0872
vn -0.9962 -0.0000 -0.0872
vn -0.0872 -0.0000 -0.9962
vn 0.0872 0.0000 0.9962
vn -0.9962 -0.0000 0.0872
vn 0.9962 -0.0000 -0.0872
vn 0.1736 0.0000 -0.9848
vn -0.1736 -0.0000 0.9848
vn 0.9848 0.0000 0.1736
vn -0.9848 0.0000 -0.1736
vn -0.1736 0.0000 -0.9848
vn 0.1736 -0.0000 0.9848
vn -0.9848 0.0000 0.1736
vn 0.9848 0.0000 -0.1736
usemtl Character
s 1
f 1/1/1 2/2/1 3/3/1 4/4/1
f 2/2/2 5/5/2 6/6/2 3/3/2
f 5/5/3 7/7/3 8/8/3 6/6/3
f 8/9/4 4/10/4 3/11/4 6/12/4
f 5/5/5 2/13/5 1/14/5 7/7/5
f 9/15/1 10/16/1 11/17/1 12/18/1
f 10/16/2 13/19/2 14/20/2 11/17/2
f 13/19/3 15/21/3 16/22/3 14/20/3
f 16/23/4 12/24/4 11/25/4 14/26/4
f 13/19/5 10/27/5 9/28/5 15/21/5
f 1/29/6 4/30/6 8/8/6 7/7/6
f 9/31/6 12/32/6 16/22/6 15/21/6
f 17/33/6 18/34/6 19/35/6 20/36/6
f 21/37/5 22/38/5 17/39/5 20/36/5
f 19/40/4 18/41/4 23/42/4 24/43/4
f 21/37/3 20/36/3 19/35/3 24/44/3
f 22/45/2 21/37/2 24/44/2 23/46/2
f 17/47/1 22/45/1 23/46/1 18/48/1
f 25/49/7 26/50/7 27/51/7 28/52/7
f 29/53/8 30/54/8 31/55/8 32/56/8
f 32/57/9 27/58/9 26/59/9 29/53/9
f 29/53/3 26/59/3 25/60/3 30/54/3
f 30/54/10 25/60/10 28/61/10 31/62/10
f 31/62/1 28/61/1 27/63/1 32/64/1
f 33/65/11 34/66/11 35/67/11 36/68/11
f 37/69/12 38/70/12 39/71/12 40/72/12
f 38/73/13 37/69/13 36/74/13 35/75/13
f 37/69/3 40/72/3 33/76/3 36/74/3
f 40/72/14 39/77/14 34/78/14 33/76/14
f 39/77/1 38/79/1 35/80/1 34/78/1
f 41/81/15 42/82/15 43/83/15 44/84/15
f 45/85/16 46/86/16 47/87/16 48/88/16
f 48/89/17 43/90/17 42/91/17 45/85/17
f 45/85/3 42/91/3 41/92/3 46/86/3
f 46/86/18 41/92/18 44/93/18 47/94/18
f 47/94/1 44/93/1 43/95/1 48/96/1
f 49/97/19 50/98/19 51/99/19 52/100/19
f 53/101/20 54/102/20 55/103/20 56/104/20
f 54/105/21 53/101/21 52/106/21 51/107/21
f 53/101/3 56/104/3 49/108/3 52/106/3
f 56/104/22 55/109/22 50/110/22 49/108/22
f 55/109/1 54/111/1 51/112/1 50/110/1
