# Blender v2.78 (sub 0) OBJ File: ''
# www.blender.org
mtllib hangingflower.mtl
o Cube_Cube.002
v 0.000000 -3.030434 0.999999
v 0.000000 0.946624 1.000000
v 0.000000 0.946624 -1.000000
v 0.000000 -3.030434 -1.000001
v -0.373949 0.598353 0.373949
v -0.373949 0.967142 0.373949
v -0.373949 0.967142 -0.373949
v -0.373949 0.598353 -0.373949
v 0.373949 0.967142 -0.373949
v 0.373949 0.598353 -0.373949
v 0.373949 0.967142 0.373949
v 0.373949 0.598353 0.373949
v -1.000000 -3.030434 -0.000001
v -1.000000 0.946624 -0.000000
v 1.000000 0.946624 -0.000000
v 1.000000 -3.030434 -0.000001
vt 0.5000 -0.0000
vt 0.5000 1.0000
vt -0.0000 1.0000
vt 0.0000 -0.0000
vt 0.8750 0.8125
vt 0.8750 0.8750
vt 0.7500 0.8750
vt 0.7500 0.8125
vt 0.6250 0.8750
vt 0.6250 0.8125
vt 0.5000 0.8750
vt 0.5000 0.8125
vt 1.0000 0.8125
vt 1.0000 0.8750
vt 0.7500 0.8750
vt 0.8750 0.8750
vt 0.8750 1.0000
vt 0.7500 1.0000
vt 0.7500 1.0000
vt 0.6250 1.0000
vt 0.5000 0.0000
vt 0.5000 1.0000
vt -0.0000 1.0000
vt 0.0000 -0.0000
vn -1.0000 0.0000 0.0000
vn 0.0000 0.0000 -1.0000
vn 1.0000 -0.0000 0.0000
vn 0.0000 -0.0000 1.0000
vn 0.0000 -1.0000 -0.0000
vn 0.0000 1.0000 0.0000
usemtl None
s 1
f 1/1/1 2/2/1 3/3/1 4/4/1
f 5/5/1 6/6/1 7/7/1 8/8/1
f 8/8/2 7/7/2 9/9/2 10/10/2
f 10/10/3 9/9/3 11/11/3 12/12/3
f 12/13/4 11/14/4 6/6/4 5/5/4
f 8/15/5 10/16/5 12/17/5 5/18/5
f 9/9/6 7/7/6 6/19/6 11/20/6
f 13/21/2 14/22/2 15/23/2 16/24/2
