# Blender v2.78 (sub 0) OBJ File: ''
# www.blender.org
mtllib lantern_wall.mtl
o Cube_Cube.001_Cube_Cube.001_Material.001
v -0.125161 -0.452880 -0.392998
v -0.125161 -0.452880 -0.092611
v -0.125161 -0.202557 -0.092611
v -0.125161 -0.202557 -0.392998
v 0.125161 -0.202557 -0.092611
v 0.125161 -0.202557 -0.392998
v 0.125161 -0.452880 -0.092611
v 0.125161 -0.452880 -0.392998
v -0.157362 -0.485081 -0.094284
v -0.157362 -0.485081 0.019017
v -0.157362 -0.170356 0.019017
v -0.157362 -0.170356 -0.094284
v 0.157362 -0.170356 0.019017
v 0.157362 -0.170356 -0.094284
v 0.157362 -0.485081 0.019017
v 0.157362 -0.485081 -0.094284
v -0.157362 -0.485081 -0.502662
v -0.157362 -0.485081 -0.389361
v -0.157362 -0.170356 -0.389361
v -0.157362 -0.170356 -0.502662
v 0.157362 -0.170356 -0.389361
v 0.157362 -0.170356 -0.502662
v 0.157362 -0.485081 -0.389361
v 0.157362 -0.485081 -0.502662
v -0.062332 -0.390051 0.017024
v -0.062332 -0.390051 0.139934
v -0.062332 -0.265387 0.139934
v -0.062332 -0.265387 0.017024
v 0.062332 -0.265387 0.139934
v 0.062332 -0.265387 0.017024
v 0.062332 -0.390051 0.139934
v 0.062332 -0.390051 0.017024
v -0.219594 -0.288113 -0.031335
v -0.219594 -0.519646 0.160069
v 0.219594 -0.519646 0.160069
v 0.219594 -0.288113 -0.031335
vt 0.3750 0.2812
vt 0.3750 0.4375
vt 0.2500 0.4375
vt 0.2500 0.2812
vt 0.1250 0.4375
vt 0.1250 0.2812
vt 0.0000 0.4375
vt 0.0000 0.2812
vt 0.5000 0.2812
vt 0.5000 0.4375
vt 0.3750 0.4375
vt 0.2500 0.4375
vt 0.2500 0.5625
vt 0.3750 0.5625
vt 0.2500 0.5625
vt 0.1250 0.5625
vt 0.4688 0.7812
vt 0.4688 0.8438
vt 0.3125 0.8438
vt 0.3125 0.7812
vt 0.1562 0.8438
vt 0.1562 0.7812
vt 0.0000 0.8438
vt 0.0000 0.7812
vt 0.6250 0.7812
vt 0.6250 0.8438
vt 0.4688 0.8438
vt 0.3125 0.8438
vt 0.3125 1.0000
vt 0.4688 1.0000
vt 0.3125 1.0000
vt 0.1562 1.0000
vt 0.4688 0.5625
vt 0.4688 0.6250
vt 0.3125 0.6250
vt 0.3125 0.5625
vt 0.1562 0.6250
vt 0.1562 0.5625
vt -0.0000 0.6250
vt -0.0000 0.5625
vt 0.6250 0.5625
vt 0.6250 0.6250
vt 0.4688 0.6250
vt 0.3125 0.6250
vt 0.3125 0.7812
vt 0.4688 0.7812
vt 0.3125 0.7812
vt 0.1562 0.7812
vt 0.1875 0.1562
vt 0.1875 0.2188
vt 0.1250 0.2188
vt 0.1250 0.1562
vt 0.0625 0.2188
vt 0.0625 0.1562
vt -0.0000 0.2188
vt -0.0000 0.1562
vt 0.2500 0.1562
vt 0.2500 0.2188
vt 0.1875 0.2188
vt 0.1250 0.2188
vt 0.1250 0.2812
vt 0.1875 0.2812
vt 0.1250 0.2812
vt 0.0625 0.2812
vt 0.2188 -0.0000
vt 0.2188 0.1562
vt -0.0000 0.1562
vt -0.0000 0.0000
vn -1.0000 0.0000 0.0000
vn 0.0000 1.0000 0.0000
vn 1.0000 0.0000 0.0000
vn 0.0000 -1.0000 -0.0000
vn 0.0000 0.0000 -1.0000
vn 0.0000 -0.0000 1.0000
vn 0.0000 0.6372 0.7707
usemtl Material.001
s 1
f 1/1/1 2/2/1 3/3/1 4/4/1
f 4/4/2 3/3/2 5/5/2 6/6/2
f 6/6/3 5/5/3 7/7/3 8/8/3
f 8/9/4 7/10/4 2/2/4 1/1/4
f 4/11/5 6/12/5 8/13/5 1/14/5
f 5/5/6 3/3/6 2/15/6 7/16/6
f 9/17/1 10/18/1 11/19/1 12/20/1
f 12/20/2 11/19/2 13/21/2 14/22/2
f 14/22/3 13/21/3 15/23/3 16/24/3
f 16/25/4 15/26/4 10/18/4 9/17/4
f 12/27/5 14/28/5 16/29/5 9/30/5
f 13/21/6 11/19/6 10/31/6 15/32/6
f 17/33/1 18/34/1 19/35/1 20/36/1
f 20/36/2 19/35/2 21/37/2 22/38/2
f 22/38/3 21/37/3 23/39/3 24/40/3
f 24/41/4 23/42/4 18/34/4 17/33/4
f 20/43/5 22/44/5 24/45/5 17/46/5
f 21/37/6 19/35/6 18/47/6 23/48/6
f 25/49/1 26/50/1 27/51/1 28/52/1
f 28/52/2 27/51/2 29/53/2 30/54/2
f 30/54/3 29/53/3 31/55/3 32/56/3
f 32/57/4 31/58/4 26/50/4 25/49/4
f 28/59/5 30/60/5 32/61/5 25/62/5
f 29/53/6 27/51/6 26/63/6 31/64/6
f 33/65/7 34/66/7 35/67/7 36/68/7
