# Blender v2.78 (sub 0) OBJ File: ''
# www.blender.org
mtllib player_statue.mtl
o Player_Cube.001
v 0.461847 2.122583 0.230925
v -0.461847 2.122583 0.230925
v -0.461847 0.563845 0.230925
v 0.461847 0.563845 0.230925
v -0.461847 2.122583 -0.230923
v -0.461847 0.563845 -0.230924
v 0.461847 2.122583 -0.230923
v 0.461847 0.563845 -0.230924
v 0.000000 0.563845 -0.230924
v 0.000000 -0.994891 -0.230925
v 0.000000 -0.994891 0.230924
v 0.000000 0.563845 0.230925
v -0.461847 2.122583 0.230925
v -0.923696 2.122583 0.230925
v -0.923696 0.563845 0.230925
v -0.461847 0.563845 0.230925
v -0.461847 2.122583 -0.230923
v -0.461847 0.563845 -0.230924
v 0.000000 -0.994891 -0.230925
v 0.000000 -0.994891 0.230924
v -0.461847 -0.994891 0.230924
v -0.461847 -0.994891 -0.230925
v -0.461847 0.563845 0.230925
v -0.461847 0.563845 -0.230924
v 0.461847 3.046277 0.461849
v -0.461847 3.046277 0.461849
v -0.461847 2.122583 0.461849
v 0.461847 2.122583 0.461849
v -0.461847 3.046277 -0.461847
v -0.461847 2.122583 -0.461847
v 0.461847 3.046277 -0.461847
v 0.461847 2.122583 -0.461847
v 0.000000 0.563845 0.230925
v 0.461847 0.563845 -0.230924
v 0.461847 -0.994891 -0.230925
v 0.000000 0.563845 -0.230924
v 0.461847 0.563845 -0.230924
v 0.923696 0.563845 -0.230924
v 0.923696 0.563845 0.230925
v 0.461847 0.563845 0.230925
v 0.923696 2.122583 -0.230923
v 0.461847 2.122583 -0.230923
v 0.461847 2.122583 0.230925
v 0.923696 2.122583 0.230925
v 0.461847 -0.994891 0.230924
v 0.461847 0.563845 0.230925
v -0.923696 2.122583 -0.230923
v -0.923696 0.563845 -0.230924
v 0.508033 3.093152 0.508034
v -0.508033 3.093152 0.508034
v -0.508033 2.077089 0.508034
v 0.508033 2.077089 0.508034
v -0.508033 3.093152 -0.508031
v -0.508033 2.077089 -0.508032
v 0.508033 3.093152 -0.508031
v 0.508033 2.077089 -0.508032
vt 0.6250 0.3750
vt 0.5000 0.3750
vt 0.5000 -0.0000
vt 0.6250 -0.0000
vt 0.4375 0.3750
vt 0.4375 -0.0000
vt 0.3125 0.3750
vt 0.3125 -0.0000
vt 0.5625 0.3750
vt 0.5625 0.5000
vt 0.4375 0.5000
vt 0.4375 0.3750
vt 0.4375 0.5000
vt 0.3125 0.5000
vt 0.1250 0.3750
vt 0.1250 -0.0000
vt 0.1875 -0.0000
vt 0.1875 0.3750
vt 0.8125 0.3750
vt 0.8750 0.3750
vt 0.8750 -0.0000
vt 0.8125 -0.0000
vt 0.7500 0.3750
vt 0.7500 -0.0000
vt 0.1875 0.3750
vt 0.1875 0.5000
vt 0.1250 0.5000
vt 0.1250 0.3750
vt 0.0000 0.3750
vt 0.0625 0.3750
vt 0.0625 -0.0000
vt 0.0000 -0.0000
vt 0.5000 0.7500
vt 0.3750 0.7500
vt 0.3750 0.5000
vt 0.5000 0.5000
vt 0.2500 0.7500
vt 0.2500 0.5000
vt 0.1250 0.7500
vt 0.1250 0.5000
vt 0.3750 0.7500
vt 0.3750 1.0000
vt 0.2500 1.0000
vt 0.2500 0.7500
vt 0.2500 1.0000
vt 0.1250 1.0000
vt 0.1875 0.3750
vt 0.2500 0.3750
vt 0.2500 -0.0000
vt 0.1875 -0.0000
vt 0.0625 0.3750
vt 0.0625 -0.0000
vt 0.1250 0.3750
vt 0.1250 -0.0000
vt 0.7500 0.3750
vt 0.8125 0.3750
vt 0.8125 0.5000
vt 0.7500 0.5000
vt 0.6875 0.3750
vt 0.7500 0.3750
vt 0.7500 0.5000
vt 0.6875 0.5000
vt 0.2500 -0.0000
vt 0.2500 0.3750
vt 0.0000 0.3750
vt 0.0000 -0.0000
vt 0.2500 0.3750
vt 0.2500 -0.0000
vt 0.0000 0.7500
vt 0.0000 0.5000
vt 0.1250 0.3750
vt 0.1250 0.5000
vt 0.0625 0.5000
vt 0.0625 0.3750
vt 0.6875 0.3750
vt 0.6875 -0.0000
vt 0.6250 0.3750
vt 0.6250 -0.0000
vt 0.6250 0.3750
vt 0.6250 -0.0000
vt 0.6875 -0.0000
vt 0.6875 0.5000
vt 0.7500 0.5000
vt 0.7500 -0.0000
vt 0.1875 0.3750
vt 0.1250 0.3750
vt 0.1250 0.5000
vt 0.1875 0.5000
vt 0.8125 -0.0000
vt 0.8125 0.3750
vt 0.7500 0.3750
vt 0.7500 0.5000
vt 0.8125 0.5000
vt 0.8125 0.3750
vt 0.8750 -0.0000
vt 0.8750 0.3750
vt 0.1250 0.3750
vt 0.0625 0.3750
vt 0.0625 0.5000
vt 0.1250 0.5000
vt 1.0000 0.7500
vt 0.8750 0.7500
vt 0.8750 0.5000
vt 1.0000 0.5000
vt 0.7500 0.7500
vt 0.7500 0.5000
vt 0.6250 0.7500
vt 0.6250 0.5000
vt 0.8750 0.7500
vt 0.8750 1.0000
vt 0.7500 1.0000
vt 0.7500 0.7500
vt 0.7500 1.0000
vt 0.6250 1.0000
vt 0.5000 0.7500
vt 0.5000 0.5000
vn 0.0000 -0.0000 1.0000
vn -1.0000 0.0000 0.0000
vn 0.0000 0.0000 -1.0000
vn 0.0000 -1.0000 -0.0000
vn 0.0000 1.0000 0.0000
vn 1.0000 0.0000 0.0000
usemtl Character
s 1
f 1/1/1 2/2/1 3/3/1 4/4/1
f 2/2/2 5/5/2 6/6/2 3/3/2
f 5/5/3 7/7/3 8/8/3 6/6/3
f 8/9/4 4/10/4 3/11/4 6/12/4
f 5/5/5 2/13/5 1/14/5 7/7/5
f 9/15/2 10/16/2 11/17/2 12/18/2
f 13/19/1 14/20/1 15/21/1 16/22/1
f 17/23/6 13/19/6 16/22/6 18/24/6
f 19/25/4 20/26/4 21/27/4 22/28/4
f 23/29/2 24/30/2 22/31/2 21/32/2
f 25/33/1 26/34/1 27/35/1 28/36/1
f 26/34/2 29/37/2 30/38/2 27/35/2
f 29/37/3 31/39/3 32/40/3 30/38/3
f 32/41/4 28/42/4 27/43/4 30/44/4
f 29/37/5 26/45/5 25/46/5 31/39/5
f 33/47/1 23/48/1 21/49/1 20/50/1
f 34/51/3 35/52/3 10/16/3 9/15/3
f 24/30/3 36/53/3 19/54/3 22/31/3
f 37/55/4 38/56/4 39/57/4 40/58/4
f 41/59/5 42/60/5 43/61/5 44/62/5
f 12/18/1 11/17/1 45/63/1 46/64/1
f 36/53/6 33/47/6 20/50/6 19/54/6
f 46/65/6 45/66/6 35/52/6 34/51/6
f 1/67/6 4/68/6 8/8/6 7/7/6
f 25/69/6 28/70/6 32/40/6 31/39/6
f 24/71/5 23/72/5 33/73/5 36/74/5
f 47/75/3 17/23/3 18/24/3 48/76/3
f 14/77/2 47/75/2 48/76/2 15/78/2
f 44/79/6 39/80/6 38/81/6 41/59/6
f 47/75/5 14/82/5 13/83/5 17/23/5
f 41/59/3 38/81/3 37/84/3 42/60/3
f 10/85/4 35/86/4 45/87/4 11/88/4
f 42/60/2 37/84/2 40/89/2 43/90/2
f 18/91/4 16/92/4 15/93/4 48/94/4
f 43/90/1 40/89/1 39/95/1 44/96/1
f 34/97/5 9/98/5 12/99/5 46/100/5
f 49/101/1 50/102/1 51/103/1 52/104/1
f 50/102/2 53/105/2 54/106/2 51/103/2
f 53/105/3 55/107/3 56/108/3 54/106/3
f 56/109/4 52/110/4 51/111/4 54/112/4
f 53/105/5 50/113/5 49/114/5 55/107/5
f 49/115/6 52/116/6 56/108/6 55/107/6
