# Blender v2.78 (sub 0) OBJ File: 'bed.blend'
# www.blender.org
mtllib bed.mtl
o Shape2
v 0.625000 -0.136288 1.963338
v -0.625000 -0.136288 1.963338
v -0.625000 0.230614 1.885826
v 0.625000 0.230614 1.885826
v -0.625000 0.018736 2.697140
v 0.625000 0.018736 2.697140
v 0.625000 0.385638 2.619628
v -0.625000 0.385638 2.619628
v 0.875000 -0.687731 -0.875000
v -0.875000 -0.687731 -0.875000
v -0.875000 0.062269 -0.875000
v 0.875000 0.062269 -0.875000
v -0.875000 -0.687732 2.875000
v 0.875000 -0.687732 2.875000
v 0.875000 0.062268 2.875000
v -0.875000 0.062268 2.875000
v 0.625000 0.249935 2.750000
v -0.625000 0.249935 2.750000
v -0.625000 0.874935 2.750000
v 0.625000 0.874935 2.750000
v -0.625000 0.249935 2.875000
v 0.625000 0.249935 2.875000
v 0.625000 0.874935 2.875000
v -0.625000 0.874935 2.875000
v -0.625000 -1.000064 -1.000000
v -1.000000 -1.000064 -1.000000
v -1.000000 0.499936 -1.000000
v -0.625000 0.499936 -1.000000
v -1.000000 -1.000064 -0.625000
v -0.625000 -1.000064 -0.625000
v -0.625000 0.499936 -0.625000
v -1.000000 0.499936 -0.625000
v 1.000000 -1.000064 -1.000000
v 0.625000 -1.000064 -1.000000
v 0.625000 0.499936 -1.000000
v 1.000000 0.499936 -1.000000
v 0.625000 -1.000064 -0.625000
v 1.000000 -1.000064 -0.625000
v 1.000000 0.499936 -0.625000
v 0.625000 0.499936 -0.625000
v 1.000000 -1.000065 2.625000
v 0.625000 -1.000065 2.625000
v 0.625000 0.999935 2.625000
v 1.000000 0.999935 2.625000
v 0.625000 -1.000065 3.000000
v 1.000000 -1.000065 3.000000
v 1.000000 0.999935 3.000000
v 0.625000 0.999935 3.000000
v -0.625000 -1.000065 2.625000
v -1.000000 -1.000065 2.625000
v -1.000000 0.999935 2.625000
v -0.625000 0.999935 2.625000
v -1.000000 -1.000065 3.000000
v -0.625000 -1.000065 3.000000
v -0.625000 0.999935 3.000000
v -1.000000 0.999935 3.000000
vt 0.4219 0.2969
vt 0.5000 0.2969
vt 0.5000 0.3438
vt 0.4219 0.3438
vt 0.5469 0.2969
vt 0.6250 0.2969
vt 0.6250 0.3438
vt 0.5469 0.3438
vt 0.5000 0.4375
vt 0.4219 0.4375
vt 0.5000 0.3438
vt 0.5781 0.3438
vt 0.5781 0.4375
vt 0.5000 0.4375
vt 0.3750 0.2969
vt 0.3750 0.3438
vt 0.2344 0.4375
vt 0.3438 0.4375
vt 0.3438 0.5312
vt 0.2344 0.5312
vt 0.5781 0.4375
vt 0.6875 0.4375
vt 0.6875 0.5312
vt 0.5781 0.5312
vt 0.3438 1.0000
vt 0.2344 1.0000
vt 0.3438 0.5312
vt 0.4531 0.5312
vt 0.4531 1.0000
vt 0.3438 1.0000
vt 0.0000 0.4375
vt 0.0000 0.5312
vt 0.0078 0.9062
vt 0.0859 0.9062
vt 0.0859 0.9844
vt 0.0078 0.9844
vt 0.0938 0.9062
vt 0.1719 0.9062
vt 0.1719 0.9844
vt 0.0938 0.9844
vt 0.0859 1.0000
vt 0.0078 1.0000
vt 0.0859 0.9844
vt 0.1641 0.9844
vt 0.1641 1.0000
vt 0.0859 1.0000
vt 0.0000 0.9062
vt 0.0000 0.9844
vt 0.3047 0.2031
vt 0.3281 0.2031
vt 0.3281 0.3906
vt 0.3047 0.3906
vt 0.3516 0.2031
vt 0.3750 0.2031
vt 0.3750 0.3906
vt 0.3516 0.3906
vt 0.3281 0.4375
vt 0.3047 0.4375
vt 0.3281 0.3906
vt 0.3516 0.3906
vt 0.3516 0.4375
vt 0.3281 0.4375
vt 0.2812 0.2031
vt 0.2812 0.3906
vt 0.1172 0.2031
vt 0.1406 0.2031
vt 0.1406 0.3906
vt 0.1172 0.3906
vt 0.1641 0.2031
vt 0.1875 0.2031
vt 0.1875 0.3906
vt 0.1641 0.3906
vt 0.1406 0.4375
vt 0.1172 0.4375
vt 0.1406 0.3906
vt 0.1641 0.3906
vt 0.1641 0.4375
vt 0.1406 0.4375
vt 0.0938 0.2031
vt 0.0938 0.3906
vt 0.0234 0.1406
vt 0.0469 0.1406
vt 0.0469 0.3906
vt 0.0234 0.3906
vt 0.0703 0.1406
vt 0.0938 0.1406
vt 0.0938 0.3906
vt 0.0703 0.3906
vt 0.0469 0.4375
vt 0.0234 0.4375
vt 0.0469 0.3906
vt 0.0703 0.3906
vt 0.0703 0.4375
vt 0.0469 0.4375
vt 0.0000 0.1406
vt 0.0000 0.3906
vt 0.2109 0.1406
vt 0.2344 0.1406
vt 0.2344 0.3906
vt 0.2109 0.3906
vt 0.2578 0.1406
vt 0.2812 0.1406
vt 0.2812 0.3906
vt 0.2578 0.3906
vt 0.2344 0.4375
vt 0.2109 0.4375
vt 0.2344 0.3906
vt 0.2578 0.3906
vt 0.2578 0.4375
vt 0.2344 0.4375
vt 0.1875 0.1406
vt 0.1875 0.3906
vn 0.0000 -0.2067 -0.9784
vn 0.0000 0.2067 0.9784
vn 0.0000 0.9784 -0.2067
vn 0.0000 -0.9784 0.2067
vn 1.0000 0.0000 0.0000
vn -1.0000 0.0000 0.0000
vn 0.0000 0.0000 -1.0000
vn 0.0000 -0.0000 1.0000
vn 0.0000 1.0000 0.0000
vn 0.0000 -1.0000 -0.0000
usemtl None
s off
f 1/1/1 2/2/1 3/3/1 4/4/1
f 5/5/2 6/6/2 7/7/2 8/8/2
f 4/4/3 3/3/3 8/9/3 7/10/3
f 6/11/4 5/12/4 2/13/4 1/14/4
f 6/15/5 1/1/5 4/4/5 7/16/5
f 2/2/6 5/5/6 8/8/6 3/3/6
f 9/17/7 10/18/7 11/19/7 12/20/7
f 13/21/8 14/22/8 15/23/8 16/24/8
f 12/20/9 11/19/9 16/25/9 15/26/9
f 14/27/10 13/28/10 10/29/10 9/30/10
f 14/31/5 9/17/5 12/20/5 15/32/5
f 10/18/6 13/21/6 16/24/6 11/19/6
f 17/33/7 18/34/7 19/35/7 20/36/7
f 21/37/8 22/38/8 23/39/8 24/40/8
f 20/36/9 19/35/9 24/41/9 23/42/9
f 22/43/10 21/44/10 18/45/10 17/46/10
f 22/47/5 17/33/5 20/36/5 23/48/5
f 18/34/6 21/37/6 24/40/6 19/35/6
f 25/49/7 26/50/7 27/51/7 28/52/7
f 29/53/8 30/54/8 31/55/8 32/56/8
f 28/52/9 27/51/9 32/57/9 31/58/9
f 30/59/10 29/60/10 26/61/10 25/62/10
f 30/63/5 25/49/5 28/52/5 31/64/5
f 26/50/6 29/53/6 32/56/6 27/51/6
f 33/65/7 34/66/7 35/67/7 36/68/7
f 37/69/8 38/70/8 39/71/8 40/72/8
f 36/68/9 35/67/9 40/73/9 39/74/9
f 38/75/10 37/76/10 34/77/10 33/78/10
f 38/79/5 33/65/5 36/68/5 39/80/5
f 34/66/6 37/69/6 40/72/6 35/67/6
f 41/81/7 42/82/7 43/83/7 44/84/7
f 45/85/8 46/86/8 47/87/8 48/88/8
f 44/84/9 43/83/9 48/89/9 47/90/9
f 46/91/10 45/92/10 42/93/10 41/94/10
f 46/95/5 41/81/5 44/84/5 47/96/5
f 42/82/6 45/85/6 48/88/6 43/83/6
f 49/97/7 50/98/7 51/99/7 52/100/7
f 53/101/8 54/102/8 55/103/8 56/104/8
f 52/100/9 51/99/9 56/105/9 55/106/9
f 54/107/10 53/108/10 50/109/10 49/110/10
f 54/111/5 49/97/5 52/100/5 55/112/5
f 50/98/6 53/101/6 56/104/6 51/99/6
