# Blender v2.78 (sub 0) OBJ File: ''
# www.blender.org
mtllib doors_fencegate_open.mtl
o Cube.001
v -0.562336 0.312307 0.123319
v -0.562336 0.437223 0.123319
v -0.437420 0.437223 0.123319
v -0.437420 0.312307 0.123319
v -0.562336 -0.062441 0.123319
v -0.562336 0.062476 0.123319
v -0.437420 0.062476 0.123319
v -0.437420 -0.062441 0.123319
v 0.437354 -0.062441 0.123439
v 0.437354 0.062476 0.123439
v 0.562270 0.062476 0.123440
v 0.562270 -0.062441 0.123440
v 0.437354 0.312307 0.123439
v 0.437354 0.437223 0.123439
v 0.562270 0.437223 0.123440
v 0.562270 0.312307 0.123440
v 0.624578 -0.499645 0.124916
v 0.624578 0.499680 0.124916
v 0.374747 0.499680 0.124916
v 0.374747 -0.499645 0.124916
v 0.374747 0.499680 -0.124915
v 0.374747 -0.499645 -0.124916
v 0.624578 -0.499645 -0.124916
v 0.624578 0.499680 -0.124915
v -0.374747 -0.499645 0.124916
v -0.374747 0.499680 0.124916
v -0.624578 0.499680 0.124916
v -0.624578 -0.499645 0.124916
v -0.624578 0.499680 -0.124915
v -0.624578 -0.499645 -0.124916
v -0.374747 -0.499645 -0.124916
v -0.374747 0.499680 -0.124915
v -0.437420 0.437223 0.500241
v -0.437420 0.312307 0.500241
v -0.562336 0.437223 0.500241
v -0.562336 0.312307 0.500241
v -0.437420 0.062476 0.500241
v -0.437420 -0.062441 0.500241
v -0.562336 0.062476 0.500241
v -0.562336 -0.062441 0.500241
v 0.562269 -0.062441 0.500361
v 0.562270 0.062476 0.500361
v 0.437354 0.062476 0.500361
v 0.437354 -0.062441 0.500361
v 0.562270 0.312307 0.500361
v 0.562270 0.437223 0.500361
v 0.437354 0.437223 0.500361
v 0.437354 0.312307 0.500361
v -0.562336 0.062476 0.373150
v -0.562336 0.312307 0.373150
v -0.437420 0.312307 0.373150
v -0.437420 0.062476 0.373150
v -0.437420 0.312307 0.500241
v -0.437420 0.062476 0.500241
v -0.562336 0.312307 0.500241
v -0.562336 0.062476 0.500241
v 0.562270 0.062476 0.500361
v 0.562270 0.312307 0.500361
v 0.437354 0.312307 0.500361
v 0.437354 0.062476 0.500361
v 0.437354 0.312307 0.373271
v 0.437354 0.062476 0.373271
v 0.562270 0.312307 0.373271
v 0.562270 0.062476 0.373271
vt 1.1250 -0.0000
vt 1.1250 1.0000
vt 0.8750 1.0000
vt 0.8750 -0.0000
vt 0.6250 -0.0000
vt 0.6250 1.0000
vt 0.3750 1.0000
vt 0.3750 0.0000
vt 0.6250 0.0000
vt 0.6250 1.0000
vt 0.3750 1.0000
vt 0.3750 0.0000
vt 0.1250 0.0000
vt 0.1250 1.0000
vt -0.1250 1.0000
vt -0.1250 0.0000
vt 1.0000 0.3750
vt 1.2500 0.3750
vt 1.2500 0.6250
vt 1.0000 0.6250
vt 1.2500 0.6875
vt 1.0000 0.6875
vt 1.0000 0.4375
vt 1.2500 0.4375
vt 0.1250 0.0000
vt 0.1250 1.0000
vt -0.1250 1.0000
vt -0.1250 0.0000
vt 0.6250 0.0000
vt 0.6250 1.0000
vt 0.3750 1.0000
vt 0.3750 0.0000
vt 0.6250 -0.0000
vt 0.6250 1.0000
vt 0.3750 1.0000
vt 0.3750 -0.0000
vt 1.1250 -0.0000
vt 1.1250 1.0000
vt 0.8750 1.0000
vt 0.8750 -0.0000
vt -0.2500 0.3750
vt 0.0000 0.3750
vt 0.0000 0.6250
vt -0.2500 0.6250
vt 0.0000 0.6875
vt -0.2500 0.6875
vt -0.2500 0.4375
vt -0.0000 0.4375
vt 0.9375 0.8125
vt 0.9375 0.9375
vt 0.5000 0.9375
vt 0.5000 0.8125
vt 0.5625 0.6250
vt 0.5625 0.7500
vt 0.4375 0.7500
vt 0.4375 0.6250
vt 0.5000 0.8125
vt 0.5000 0.9375
vt 0.1250 0.9375
vt 0.1250 0.8125
vt 0.1250 0.4375
vt 0.5000 0.4375
vt 0.5000 0.5625
vt 0.1250 0.5625
vt 0.5000 0.6250
vt 0.1250 0.6250
vt 0.1250 0.5000
vt 0.5000 0.5000
vt 0.9375 0.4375
vt 0.9375 0.5625
vt 0.5000 0.5625
vt 0.5000 0.4375
vt 0.5625 0.2500
vt 0.5625 0.3750
vt 0.4375 0.3750
vt 0.4375 0.2500
vt 0.5000 0.4375
vt 0.5000 0.5625
vt 0.1250 0.5625
vt 0.1250 0.4375
vt 0.1250 0.4375
vt 0.5000 0.5625
vt 0.1250 0.5625
vt 0.5000 0.6250
vt 0.1250 0.6250
vt 0.1250 0.5000
vt 0.5000 0.5000
vt 0.5625 0.4375
vt 0.5625 0.5625
vt 0.4375 0.5625
vt 0.4375 0.4375
vt 0.5000 0.4375
vt 0.5000 0.5625
vt 0.0625 0.5625
vt 0.0625 0.4375
vt 0.8750 0.4375
vt 0.8750 0.5625
vt 0.5000 0.5625
vt 0.5000 0.4375
vt 0.8750 0.4375
vt 0.8750 0.5625
vt 0.5000 0.5625
vt 0.8750 0.6250
vt 0.5000 0.6250
vt 0.5000 0.5000
vt 0.8750 0.5000
vt 0.5625 0.8125
vt 0.5625 0.9375
vt 0.4375 0.9375
vt 0.4375 0.8125
vt 0.5000 0.8125
vt 0.5000 0.9375
vt 0.0625 0.9375
vt 0.0625 0.8125
vt 0.8750 0.8125
vt 0.8750 0.9375
vt 0.5000 0.9375
vt 0.5000 0.8125
vt 0.5000 0.4375
vt 0.8750 0.4375
vt 0.8750 0.5625
vt 0.5000 0.5625
vt 0.8750 0.6250
vt 0.5000 0.6250
vt 0.5000 0.5000
vt 0.8750 0.5000
vt 0.5625 0.5625
vt 0.5625 0.8125
vt 0.4375 0.8125
vt 0.4375 0.5625
vt 0.6250 0.5625
vt 0.6250 0.8125
vt 0.5000 0.8125
vt 0.5000 0.5625
vt 0.5625 0.3750
vt 0.5625 0.6250
vt 0.4375 0.6250
vt 0.4375 0.3750
vt 0.5000 0.5625
vt 0.5000 0.8125
vt 0.3750 0.8125
vt 0.3750 0.5625
vt 0.5000 0.5625
vt 0.3750 0.5625
vt 0.3750 0.4375
vt 0.5000 0.4375
vt 0.5000 0.6250
vt 0.3750 0.6250
vt 0.3750 0.5000
vt 0.5000 0.5000
vt 0.5625 0.5625
vt 0.5625 0.8125
vt 0.4375 0.8125
vt 0.4375 0.5625
vt 0.5000 0.5625
vt 0.5000 0.8125
vt 0.3750 0.8125
vt 0.3750 0.5625
vt 0.5625 0.3750
vt 0.5625 0.6250
vt 0.4375 0.6250
vt 0.4375 0.3750
vt 0.6250 0.5625
vt 0.6250 0.8125
vt 0.5000 0.8125
vt 0.5000 0.5625
vt 0.6250 0.5625
vt 0.5000 0.5625
vt 0.5000 0.4375
vt 0.6250 0.4375
vt 0.6250 0.6250
vt 0.5000 0.6250
vt 0.5000 0.5000
vt 0.6250 0.5000
vt 0.0000 0.0000
vt 0.0000 0.0000
vt 0.0000 0.0000
vt 0.0000 0.0000
vt 0.0000 0.0000
vt 0.0000 0.0000
vt 0.0000 0.0000
vt 0.0000 0.0000
vt 0.0000 0.0000
vt 0.0000 0.0000
vt 0.0000 0.0000
vt 0.0000 0.0000
vt 0.0000 0.0000
vt 0.0000 0.0000
vt 0.0000 0.0000
vt 0.0000 0.0000
vn 0.0000 -0.0000 1.0000
vn -1.0000 -0.0000 0.0000
vn 1.0000 0.0000 0.0000
vn 0.0000 0.0000 -1.0000
vn 0.0000 -1.0000 -0.0000
vn 0.0000 1.0000 0.0000
usemtl Material.001
s 1
f 17/1/1 18/2/1 19/3/1 20/4/1
f 20/5/2 19/6/2 21/7/2 22/8/2
f 23/9/3 24/10/3 18/11/3 17/12/3
f 22/13/4 21/14/4 24/15/4 23/16/4
f 22/17/5 23/18/5 17/19/5 20/20/5
f 24/21/6 21/22/6 19/23/6 18/24/6
f 25/25/1 26/26/1 27/27/1 28/28/1
f 28/29/2 27/30/2 29/31/2 30/32/2
f 31/33/3 32/34/3 26/35/3 25/36/3
f 30/37/4 29/38/4 32/39/4 31/40/4
f 30/41/5 31/42/5 25/43/5 28/44/5
f 32/45/6 29/46/6 27/47/6 26/48/6
f 4/49/3 3/50/3 33/51/3 34/52/3
f 34/53/1 33/54/1 35/55/1 36/56/1
f 36/57/2 35/58/2 2/59/2 1/60/2
f 4/61/5 34/62/5 36/63/5 1/64/5
f 33/65/6 3/66/6 2/67/6 35/68/6
f 8/69/3 7/70/3 37/71/3 38/72/3
f 38/73/1 37/74/1 39/75/1 40/76/1
f 40/77/2 39/78/2 6/79/2 5/80/2
f 8/81/5 38/72/5 40/82/5 5/83/5
f 37/84/6 7/85/6 6/86/6 39/87/6
f 41/88/1 42/89/1 43/90/1 44/91/1
f 44/92/2 43/93/2 10/94/2 9/95/2
f 12/96/3 11/97/3 42/98/3 41/99/3
f 44/92/5 9/100/5 12/101/5 41/102/5
f 10/103/6 43/104/6 42/105/6 11/106/6
f 45/107/1 46/108/1 47/109/1 48/110/1
f 48/111/2 47/112/2 14/113/2 13/114/2
f 16/115/3 15/116/3 46/117/3 45/118/3
f 48/119/5 13/120/5 16/121/5 45/122/5
f 14/123/6 47/124/6 46/125/6 15/126/6
f 49/127/4 50/128/4 51/129/4 52/130/4
f 52/131/3 51/132/3 53/133/3 54/134/3
f 54/135/1 53/136/1 55/137/1 56/138/1
f 56/139/2 55/140/2 50/141/2 49/142/2
f 52/143/5 54/144/5 56/145/5 49/146/5
f 53/147/6 51/148/6 50/149/6 55/150/6
f 57/151/1 58/152/1 59/153/1 60/154/1
f 60/155/2 59/156/2 61/157/2 62/158/2
f 62/159/4 61/160/4 63/161/4 64/162/4
f 64/163/3 63/164/3 58/165/3 57/166/3
f 60/167/5 62/168/5 64/169/5 57/170/5
f 61/171/6 59/172/6 58/173/6 63/174/6
usemtl Material_NONE
f 1/175/4 2/176/4 3/177/4 4/178/4
f 5/179/4 6/180/4 7/181/4 8/182/4
f 9/183/4 10/184/4 11/185/4 12/186/4
f 13/187/4 14/188/4 15/189/4 16/190/4
